<?xml version="1.0" encoding="UTF-8"?>
<svg version="1.1" xmlns="http://www.w3.org/2000/svg" width="1024" height="1024">
<path d="M0 0 C2.51586914 1.22070312 2.51586914 1.22070312 5.03515625 2.78125 C5.99462158 3.36737061 6.95408691 3.95349121 7.94262695 4.55737305 C8.97218506 5.19843994 10.00174316 5.83950684 11.0625 6.5 C12.72781029 7.51873885 14.39315262 8.53742763 16.05986023 9.55387878 C17.2286972 10.26675054 18.39690984 10.98064688 19.56452942 11.69551086 C25.64674355 15.41356118 31.79648977 19.01324199 37.95446777 22.60394287 C47.38236177 28.10205082 56.78522657 33.63836994 66.13208008 39.2734375 C71.19488746 42.32328452 76.27011468 45.35123639 81.35546875 48.36328125 C82.0117627 48.75204941 82.66805664 49.14081757 83.34423828 49.54136658 C84.7048046 50.34726461 86.0653801 51.15314714 87.42596436 51.95901489 C88.11039612 52.36441498 88.79482788 52.76981506 89.5 53.1875 C90.52568085 53.79499588 90.52568085 53.79499588 91.57208252 54.4147644 C101.90225325 60.53613885 112.17841582 66.74050835 122.42584229 72.99920654 C131.0091833 78.23721729 139.66356763 83.32638917 148.43237305 88.24780273 C149.21523682 88.68809814 149.99810059 89.12839355 150.8046875 89.58203125 C151.47483887 89.95561768 152.14499023 90.3292041 152.83544922 90.71411133 C153.54975098 91.13845459 154.26405273 91.56279785 155 92 C156.01976236 92.52469753 157.03952473 93.04939507 158.09018898 93.58999252 C161 96 161 96 161.73828697 99.52196121 C161.76346643 100.96310112 161.755413 102.40504682 161.7215271 103.8460083 C161.72665365 104.64163516 161.7317802 105.43726202 161.7370621 106.25699878 C161.74695541 108.92638586 161.71393272 111.59351636 161.68115234 114.26269531 C161.67946013 116.17459052 161.68040945 118.08648963 161.68380737 119.99838257 C161.68553149 125.19253537 161.65021384 130.38585972 161.60836363 135.57981968 C161.5708991 141.00635662 161.56733464 146.43291179 161.56021118 151.85955811 C161.54154978 162.13732213 161.49229506 172.414704 161.43211424 182.6922996 C161.36508952 194.39223668 161.33207024 206.09219184 161.30194163 217.79227304 C161.2391973 241.86172737 161.13363694 265.93084229 161 290 C157.31816076 292.08470308 153.63569725 294.16830105 149.953125 296.25170898 C148.39875732 297.13183781 148.39875732 297.13183781 146.81298828 298.02974701 C139.58260483 302.11936086 132.32243598 306.13976644 125 310.0625 C123.04126038 311.11512975 121.08291597 312.16849529 119.125 313.22265625 C117.89136719 313.88406616 117.89136719 313.88406616 116.6328125 314.55883789 C114.52013819 315.71528415 112.42531842 316.89338274 110.33544922 318.09007263 C108.68440186 319.03548668 108.68440186 319.03548668 107 320 C107.02212303 320.63646517 107.04424606 321.27293034 107.06703949 321.92868233 C107.5988643 337.47113468 107.99502033 353.01039515 108.24349213 368.55970955 C108.36687936 376.08009095 108.53475817 383.59437618 108.81054688 391.11083984 C109.05105067 397.66880428 109.20486712 404.2223574 109.25812387 410.78460872 C109.28924448 414.25700043 109.36125514 417.7167866 109.53752136 421.18509293 C110.39123589 438.65005647 110.39123589 438.65005647 107 446 C101.19969102 452.22420343 93.57096236 455.60621317 85.81751251 458.8054657 C82.16819063 460.35266031 78.90130103 462.24982268 75.515625 464.3046875 C73.42772949 465.49592491 71.33919735 466.68604724 69.25 467.875 C68.08326202 468.54023952 66.91659785 469.20560852 65.75 469.87109375 C63.35509458 471.23714001 60.95989073 472.60266063 58.56445312 473.96777344 C53.28888953 476.97480863 48.0172894 479.98877937 42.74542236 483.00228882 C39.83299369 484.66707936 36.92042775 486.33162965 34.0078125 487.99609375 C33.43070526 488.32589737 32.85359802 488.65570099 32.25900269 488.99549866 C28.73949621 491.00661453 25.21933188 493.01657378 21.69866943 495.02566528 C9.78423855 501.82477958 -2.12188804 508.63753173 -14 515.5 C-22.94559059 520.66823143 -31.90363381 525.81416306 -40.875 530.9375 C-41.45471558 531.26860779 -42.03443115 531.59971558 -42.63171387 531.94085693 C-48.54016638 535.31521064 -54.45013089 538.68690462 -60.36167908 542.05583191 C-63.32490498 543.74476211 -66.28758312 545.43465122 -69.25 547.125 C-70.12415054 547.62370102 -70.12415054 547.62370102 -71.01596069 548.13247681 C-79.10209693 552.74769243 -87.15555079 557.4161144 -95.1875 562.125 C-104.27795581 567.45362814 -113.44575529 572.6291316 -122.65185547 577.75488281 C-130.75317578 582.27590565 -138.77512259 586.92174004 -146.77832031 591.61376953 C-154.40798976 596.08278832 -162.06984655 600.49348885 -169.75 604.875 C-170.62547989 605.37454697 -170.62547989 605.37454697 -171.51864624 605.88418579 C-174.48759504 607.57799047 -177.45702023 609.27095762 -180.42675781 610.96337891 C-186.32801689 614.32652051 -192.2269235 617.69378067 -198.125 621.0625 C-198.70536011 621.39393005 -199.28572021 621.72536011 -199.88366699 622.0668335 C-208.26841262 626.85607663 -216.6389612 631.66948791 -225 636.5 C-233.94558975 641.66823094 -242.90354844 646.81431341 -251.875 651.9375 C-252.45538025 652.26894012 -253.0357605 652.60038025 -253.63372803 652.94186401 C-258.3455141 655.63234108 -263.05811682 658.32138652 -267.77075195 661.01037598 C-271.88921585 663.36041657 -276.00735656 665.7110221 -280.125 668.0625 C-280.70321503 668.39269135 -281.28143005 668.72288269 -281.87716675 669.06307983 C-289.30951805 673.30833922 -296.73299288 677.56870069 -304.14501953 681.84936523 C-306.31538086 683.10223954 -308.48690509 684.3531018 -310.65966797 685.60180664 C-315.82637206 688.57339891 -320.97185835 691.57269709 -326.08203125 694.640625 C-327.03988525 695.20813477 -327.99773926 695.77564453 -328.98461914 696.36035156 C-330.77449997 697.42160694 -332.55685481 698.49570374 -334.32983398 699.58496094 C-335.12333252 700.05192383 -335.91683105 700.51888672 -336.734375 701 C-337.75869629 701.61875 -337.75869629 701.61875 -338.80371094 702.25 C-342.71524878 703.58573191 -345.92015092 702.49255019 -349.5793457 700.82348633 C-350.43616943 700.33130615 -351.29299316 699.83912598 -352.17578125 699.33203125 C-353.15562988 698.77572021 -354.13547852 698.21940918 -355.14501953 697.64624023 C-356.71292236 696.73853882 -356.71292236 696.73853882 -358.3125 695.8125 C-360.56625978 694.52838874 -362.82017026 693.24454191 -365.07421875 691.9609375 C-366.23625351 691.29540128 -367.39820007 690.62971104 -368.56005859 689.96386719 C-373.89457627 686.91838385 -379.26071199 683.9301193 -384.625 680.9375 C-393.542862 675.94780174 -402.44364885 670.92852656 -411.33642578 665.89428711 C-418.37975964 661.90941754 -425.43706584 657.95001133 -432.5 654 C-441.4593421 648.98940497 -450.40281974 643.95170949 -459.3359375 638.89453125 C-466.37946347 634.90963231 -473.43690717 630.95010006 -480.5 627 C-489.4593421 621.98940497 -498.40281974 616.95170949 -507.3359375 611.89453125 C-514.37946347 607.90963231 -521.43690717 603.95010006 -528.5 600 C-537.4593421 594.98940497 -546.40281974 589.95170949 -555.3359375 584.89453125 C-562.37946417 580.90963191 -569.4369774 576.95022658 -576.5 573 C-584.96597346 568.26351273 -593.42609212 563.51687276 -601.875 558.75 C-602.85017578 558.20085938 -603.82535156 557.65171875 -604.83007812 557.0859375 C-605.72919922 556.57804688 -606.62832031 556.07015625 -607.5546875 555.546875 C-608.34343262 555.10182617 -609.13217773 554.65677734 -609.94482422 554.19824219 C-611.66740346 553.19391587 -613.34090953 552.10606031 -615 551 C-615.29312925 548.34164482 -615.38858491 545.91653753 -615.35644531 543.25610352 C-615.35844153 542.4472511 -615.36043776 541.63839869 -615.36249447 540.80503559 C-615.36541802 538.07944603 -615.34668932 535.35442809 -615.328125 532.62890625 C-615.32577319 530.68132638 -615.32468911 528.73374462 -615.32478333 526.78616333 C-615.32067171 521.48463373 -615.29695695 516.18336832 -615.26771927 510.88192368 C-615.25005057 507.57197386 -615.23594344 504.26202877 -615.22311401 500.95205688 C-615.18753435 491.79241399 -615.14997732 482.63280789 -615.09617615 473.47325134 C-615.02117837 460.36434064 -614.99747499 447.25727341 -615.04715157 434.14822102 C-615.08155964 424.95959159 -615.08647518 415.7712907 -615.06873894 406.58261395 C-615.0594326 401.09500702 -615.06546776 395.60835472 -615.1072998 390.12088013 C-615.14591792 384.95888101 -615.14226919 379.7986249 -615.10632896 374.63662338 C-615.10061541 372.7426459 -615.11035731 370.84854917 -615.13669777 368.95474625 C-615.32310174 354.67710885 -615.32310174 354.67710885 -612.13963318 350.64187622 C-609.81190611 349.04892233 -607.62771361 348.00716411 -605 347 C-603.94031006 346.36384766 -602.88062012 345.72769531 -601.78881836 345.07226562 C-600.81565674 344.52248047 -599.84249512 343.97269531 -598.83984375 343.40625 C-597.72899414 342.7757373 -596.61814453 342.14522461 -595.47363281 341.49560547 C-594.89762329 341.17058044 -594.32161377 340.84555542 -593.72814941 340.51068115 C-590.62056315 338.75669244 -587.51965351 336.99095934 -584.41796875 335.2265625 C-583.7904068 334.86990509 -583.16284485 334.51324768 -582.51626587 334.14578247 C-576.5701505 330.76327792 -570.65530862 327.32823319 -564.75 323.875 C-563.77522705 323.30515381 -562.8004541 322.73530762 -561.79614258 322.14819336 C-559.83945466 321.00364205 -557.88299151 319.85870638 -555.92675781 318.71337891 C-541.55043686 310.29721103 -527.15029945 301.9239385 -512.71582031 293.60791016 C-501.4520275 287.11500122 -490.22447236 280.56057444 -479 274 C-465.59382119 266.16424334 -452.17079317 258.35962289 -438.71582031 250.60791016 C-427.4520275 244.11500122 -416.22447236 237.56057444 -405 231 C-401.04214526 228.68667962 -397.08389337 226.37404251 -393.125 224.0625 C-392.13781982 223.48604736 -391.15063965 222.90959473 -390.13354492 222.31567383 C-382.83388651 218.05798345 -375.51299394 213.83803948 -368.1875 209.625 C-359.29102939 204.50713788 -350.44353286 199.31342492 -341.625 194.0625 C-331.23961775 187.88090391 -320.78238963 181.84146782 -310.27880859 175.86401367 C-299.78334836 169.88975209 -289.34852473 163.81507116 -278.92675781 157.71337891 C-264.55043686 149.29721103 -250.15029945 140.9239385 -235.71582031 132.60791016 C-224.4520275 126.11500122 -213.22447236 119.56057444 -202 113 C-198.04214526 110.68667962 -194.08389337 108.37404251 -190.125 106.0625 C-189.13781982 105.48604736 -188.15063965 104.90959473 -187.13354492 104.31567383 C-179.83388651 100.05798345 -172.51299394 95.83803948 -165.1875 91.625 C-156.29102939 86.50713788 -147.44353286 81.31342492 -138.625 76.0625 C-128.23961775 69.88090391 -117.78238963 63.84146782 -107.27880859 57.86401367 C-96.78334836 51.88975209 -86.34852473 45.81507116 -75.92675781 39.71337891 C-70.99491937 36.8261882 -66.0604267 33.9435518 -61.125 31.0625 C-60.14490967 30.49031738 -59.16481934 29.91813477 -58.1550293 29.32861328 C-49.54326605 24.30631327 -40.91321026 19.3157503 -32.26318359 14.35961914 C-27.3988976 11.56740512 -22.55933053 8.75370733 -17.79296875 5.796875 C-16.62689087 5.08096191 -16.62689087 5.08096191 -15.43725586 4.35058594 C-14.03193656 3.4828299 -12.63474748 2.60168797 -11.24829102 1.70410156 C-6.97465206 -0.92220094 -4.80654453 -1.19511218 0 0 Z M-5 10 C-6.2375 11.0209375 -6.2375 11.0209375 -7.5 12.0625 C-9.82767647 13.86644927 -11.1441791 14.57691542 -14 15 C-14 15.66 -14 16.32 -14 17 C-15.32 17 -16.64 17 -18 17 C-18.66 17.99 -19.32 18.98 -20 20 C-21.65 20.33 -23.3 20.66 -25 21 C-24.34 24.63 -23.68 28.26 -23 32 C-22.34 32 -21.68 32 -21 32 C-21 32.66 -21 33.32 -21 34 C-20.34 34 -19.68 34 -19 34 C-19.495 35.485 -19.495 35.485 -20 37 C-19.35891863 38.67667436 -18.68528045 40.34089996 -18 42 C-17.66581472 43.43261394 -17.3552949 44.87085731 -17.0625 46.3125 C-16.26612508 50.08744251 -15.14287546 53.56083027 -13.7265625 57.14453125 C-12.71471606 59.72854769 -11.87736386 62.36790841 -11 65 C-10.67 65.66 -10.34 66.32 -10 67 C-14.52256628 65.53681679 -17.41330365 63.06363647 -21 60 C-23.71552569 58.23175071 -25.92323231 57.02558923 -29 56 C-29 55.34 -29 54.68 -29 54 C-29.99 54 -30.98 54 -32 54 C-32.33 53.01 -32.66 52.02 -33 51 C-33.99 51 -34.98 51 -36 51 C-36 50.34 -36 49.68 -36 49 C-41.49963267 44.72245181 -41.49963267 44.72245181 -48 43 C-48.66 41.68 -49.32 40.36 -50 39 C-51.65 39 -53.3 39 -55 39 C-55 39.66 -55 40.32 -55 41 C-55.99 41 -56.98 41 -58 41 C-58 41.66 -58 42.32 -58 43 C-60.475 43.495 -60.475 43.495 -63 44 C-63 44.66 -63 45.32 -63 46 C-63.804375 46.12375 -64.60875 46.2475 -65.4375 46.375 C-66.283125 46.58125 -67.12875 46.7875 -68 47 C-68.33 47.66 -68.66 48.32 -69 49 C-70.97888961 49.72693904 -72.97954558 50.39816251 -75 51 C-74.37967524 54.46485707 -74.37967524 54.46485707 -73 58 C-70.07890236 59.72269861 -68.38864211 60 -65 60 C-65.33 60.99 -65.66 61.98 -66 63 C-64.54462432 63.83848804 -63.08559627 64.67063934 -61.625 65.5 C-60.81289063 65.9640625 -60.00078125 66.428125 -59.1640625 66.90625 C-57.10663126 68.15035859 -57.10663126 68.15035859 -55 68 C-54.67 68.99 -54.34 69.98 -54 71 C-53.01 70.505 -53.01 70.505 -52 70 C-52 70.66 -52 71.32 -52 72 C-49.09451118 74.04169485 -47.59857954 75 -44 75 C-43.67 76.32 -43.34 77.64 -43 79 C-41.35 79.33 -39.7 79.66 -38 80 C-37.67 80.99 -37.34 81.98 -37 83 C-36.01 83.66 -35.02 84.32 -34 85 C-33.34 84.67 -32.68 84.34 -32 84 C-32 84.66 -32 85.32 -32 86 C-31.34 86 -30.68 86 -30 86 C-30 86.99 -30 87.98 -30 89 C-29.236875 89.103125 -28.47375 89.20625 -27.6875 89.3125 C-24.71187939 90.07370527 -24.0965041 90.9034959 -22 93 C-19.39388923 93.72197162 -19.39388923 93.72197162 -17 94 C-17 94.66 -17 95.32 -17 96 C-16.34 96 -15.68 96 -15 96 C-14.67 96.99 -14.34 97.98 -14 99 C-13.34 98.67 -12.68 98.34 -12 98 C-12 98.66 -12 99.32 -12 100 C-11.01 100 -10.02 100 -9 100 C-9 100.66 -9 101.32 -9 102 C-8.34 102 -7.68 102 -7 102 C-6.67 102.66 -6.34 103.32 -6 104 C-5.34 103.67 -4.68 103.34 -4 103 C-3.67 103.99 -3.34 104.98 -3 106 C1.47151691 109.81461393 1.47151691 109.81461393 7 111 C7 111.66 7 112.32 7 113 C8.27056525 114.68732044 8.27056525 114.68732044 10 116 C10.99 116 11.98 116 13 116 C13 116.66 13 117.32 13 118 C15.81509993 120.2773501 15.81509993 120.2773501 19 120 C19 120.99 19 121.98 19 123 C19.804375 123.28875 20.60875 123.5775 21.4375 123.875 C24 125 24 125 25 127 C26.32 127 27.64 127 29 127 C29.33 128.32 29.66 129.64 30 131 C33.3503698 130.42235003 34.68233772 129.41423154 37 127 C39.1875 125.8125 39.1875 125.8125 41 125 C41 124.34 41 123.68 41 123 C42.98 122.67 44.96 122.34 47 122 C47 121.01 47 120.02 47 119 C48.175625 118.7834375 48.175625 118.7834375 49.375 118.5625 C51.96421018 118.12201075 51.96421018 118.12201075 54 117 C54 115.68 54 114.36 54 113 C53.01 113 52.02 113 51 113 C50.67 112.01 50.34 111.02 50 110 C49.01 110 48.02 110 47 110 C46.67 109.01 46.34 108.02 46 107 C44.515 106.505 44.515 106.505 43 106 C41.515 105.505 41.515 105.505 40 105 C39.67 104.01 39.34 103.02 39 102 C36.10441559 100.5522078 34.25811062 100 31 100 C31 99.01 31 98.02 31 97 C30.01 97 29.02 97 28 97 C27.7834375 95.6696875 27.7834375 95.6696875 27.5625 94.3125 C27.08980022 91.52882354 26.56929815 88.76516243 26 86 C29.51349448 85.89961444 32.57087486 86.26518747 36 87 C37.2375 87.144375 38.475 87.28875 39.75 87.4375 C41.35875 87.7159375 41.35875 87.7159375 43 88 C43.33 88.66 43.66 89.32 44 90 C46.02333934 90.46842712 46.02333934 90.46842712 48.375 90.625 C49.56222656 90.73714844 49.56222656 90.73714844 50.7734375 90.8515625 C52.51246725 90.96749782 54.25711002 91 56 91 C56.33 91.66 56.66 92.32 57 93 C57.556875 92.79375 58.11375 92.5875 58.6875 92.375 C61.70752061 91.88526693 63.15906235 92.86362494 66 94 C68.36919633 94.29969321 70.72669648 94.49845672 73.109375 94.65625 C74.04523438 94.82640625 74.04523438 94.82640625 75 95 C75.33 95.66 75.66 96.32 76 97 C77.32 96.67 78.64 96.34 80 96 C80 96.66 80 97.32 80 98 C83.36704285 98.2295711 85.41370268 98.33943529 88.375 96.625 C89.179375 95.820625 89.179375 95.820625 90 95 C90 94.34 90 93.68 90 93 C91.32 92.67 92.64 92.34 94 92 C94 91.34 94 90.68 94 90 C94.95712891 89.83564453 94.95712891 89.83564453 95.93359375 89.66796875 C96.75988281 89.50941406 97.58617187 89.35085937 98.4375 89.1875 C99.67306641 88.96126953 99.67306641 88.96126953 100.93359375 88.73046875 C101.95646484 88.36888672 101.95646484 88.36888672 103 88 C103.33 87.01 103.66 86.02 104 85 C105.32 85 106.64 85 108 85 C108.23226189 82.73080676 108.23226189 82.73080676 105.875 80.8125 C103.0964847 78.66210711 103.0964847 78.66210711 99.6875 79.25 C98.800625 79.4975 97.91375 79.745 97 80 C97 79.01 97 78.02 97 77 C88.37061984 75.31359307 79.71919377 74.10607856 71 73 C71 72.34 71 71.68 71 71 C69.68 71.33 68.36 71.66 67 72 C66.67 71.34 66.34 70.68 66 70 C63.97479485 69.56978387 63.97479485 69.56978387 61.625 69.4375 C58.80522535 69.21246912 56.71336297 68.90445432 54 68 C53.67 67.34 53.34 66.68 53 66 C51.906875 66.020625 50.81375 66.04125 49.6875 66.0625 C46 66 46 66 43 65 C42.67 64.34 42.34 63.68 42 63 C38.54956883 61.84985628 35.64717645 61 32 61 C30.59824731 60.71522579 29.20260468 60.39956963 27.8125 60.0625 C23.54966029 59.07715508 19.34789475 58.47431579 15 58 C15.185625 56.9275 15.37125 55.855 15.5625 54.75 C16.06323638 50.73192393 16.06323638 50.73192393 15 47 C14.34 46.67 13.68 46.34 13 46 C13.495 45.01 13.495 45.01 14 44 C12.60241883 40.43616803 11.01099298 37.02325439 9.375 33.5625 C8.1223482 30.31699305 7.63373741 27.5761932 7.31640625 24.1328125 C6.74348185 20.27087766 5.34420926 16.6521912 4 13 C3.34 13 2.68 13 2 13 C2.33 11.68 2.66 10.36 3 9 C-0.44709521 7.76889457 -1.92910476 8.04579394 -5 10 Z M-105 73 C-105 73.66 -105 74.32 -105 75 C-105.65484375 74.79890625 -106.3096875 74.5978125 -106.984375 74.390625 C-111.04744396 73.86432073 -114.32121859 74.73247388 -118.25 75.75 C-118.9821875 75.92015625 -119.714375 76.0903125 -120.46875 76.265625 C-122.82233932 76.82426595 -122.82233932 76.82426595 -126 78 C-126.33 78.99 -126.66 79.98 -127 81 C-129.61497339 82.23867161 -132.25511949 83.08503983 -135 84 C-135 84.66 -135 85.32 -135 86 C-136.98 86.33 -138.96 86.66 -141 87 C-141.103125 87.639375 -141.20625 88.27875 -141.3125 88.9375 C-141.539375 89.618125 -141.76625 90.29875 -142 91 C-142.99 91.33 -143.98 91.66 -145 92 C-145 92.66 -145 93.32 -145 94 C-145.99 93.67 -146.98 93.34 -148 93 C-152.74231698 100.50302294 -154.17969517 107.1460773 -153 116 C-152.34 116.99 -151.68 117.98 -151 119 C-150.375 121.1875 -150.375 121.1875 -150 123 C-149.34 123 -148.68 123 -148 123 C-147.67 124.32 -147.34 125.64 -147 127 C-145.35 127.33 -143.7 127.66 -142 128 C-142 128.99 -142 129.98 -142 131 C-140.68798827 132.56249809 -140.68798827 132.56249809 -139 134 C-138.505 134.556875 -138.01 135.11375 -137.5 135.6875 C-135.95590371 137.3292523 -135.95590371 137.3292523 -133 137 C-132.9175 137.598125 -132.835 138.19625 -132.75 138.8125 C-131.77705573 141.65025411 -130.55550687 142.49676067 -128 144 C-127.01 144 -126.02 144 -125 144 C-125 144.66 -125 145.32 -125 146 C-124.46375 146.2475 -123.9275 146.495 -123.375 146.75 C-121 148 -121 148 -118 150.1875 C-115.2402883 152.2669762 -115.2402883 152.2669762 -112.625 151.75 C-111.820625 151.37875 -111.820625 151.37875 -111 151 C-110.67 152.32 -110.34 153.64 -110 155 C-109.2575 155.0825 -108.515 155.165 -107.75 155.25 C-105 156 -105 156 -103.25 157.8125 C-100.49364924 160.49228546 -97.74965106 161.53582917 -94.23046875 162.98828125 C-92 164 -92 164 -88.9375 166.1875 C-85.15032181 168.52426952 -82.40699449 168.69606935 -78 169 C-78 169.66 -78 170.32 -78 171 C-76.68 171 -75.36 171 -74 171 C-74 171.66 -74 172.32 -74 173 C-69.29137884 175.41639179 -64.97007475 175.26915026 -59.8125 175.1875 C-58.96550537 175.17960449 -58.11851074 175.17170898 -57.24584961 175.16357422 C-47.31402636 175.45030202 -47.31402636 175.45030202 -37.93359375 172.9609375 C-36 172 -36 172 -33 172 C-32.67 171.34 -32.34 170.68 -32 170 C-28.32843133 167.91388144 -25.11150867 166.79946002 -21 166 C-18.94729537 164.15811388 -18.94729537 164.15811388 -18 162 C-17.175 161.690625 -16.35 161.38125 -15.5 161.0625 C-14.675 160.711875 -13.85 160.36125 -13 160 C-12.67 159.01 -12.34 158.02 -12 157 C-11.01 157.33 -10.02 157.66 -9 158 C-7.35 156.35 -5.7 154.7 -4 153 C-4.33 152.01 -4.66 151.02 -5 150 C-4.38125 149.7525 -3.7625 149.505 -3.125 149.25 C-0.56123934 147.7419055 -0.1021186 146.72373804 1 144 C1.85680865 137.98008471 0.82074032 133.3160106 -2 128 C-2.66 127.34 -3.32 126.68 -4 126 C-4.93797746 124.83371717 -5.87542931 123.66701152 -6.8125 122.5 C-8.81682295 120.11925543 -9.74400068 119.10120904 -12.6875 117.9375 C-15 117 -15 117 -16.4375 113.9375 C-16.953125 112.968125 -17.46875 111.99875 -18 111 C-21.08961458 110.02525184 -21.08961458 110.02525184 -24 110 C-24.33 110.99 -24.66 111.98 -25 113 C-25.99 113 -26.98 113 -28 113 C-28 113.66 -28 114.32 -28 115 C-28.78375 115.144375 -29.5675 115.28875 -30.375 115.4375 C-32.96421018 115.87798925 -32.96421018 115.87798925 -35 117 C-35 117.66 -35 118.32 -35 119 C-36.65 119.33 -38.3 119.66 -40 120 C-40 120.99 -40 121.98 -40 123 C-41.65 123.66 -43.3 124.32 -45 125 C-44.01 126.98 -44.01 126.98 -43 129 C-42.34 128.67 -41.68 128.34 -41 128 C-41 128.99 -41 129.98 -41 131 C-40.01 131 -39.02 131 -38 131 C-37.9175 131.61875 -37.835 132.2375 -37.75 132.875 C-37.5025 133.57625 -37.255 134.2775 -37 135 C-36.34 135.268125 -35.68 135.53625 -35 135.8125 C-34.01 136.4003125 -34.01 136.4003125 -33 137 C-32.25 140.625 -32.25 140.625 -32 144 C-33.98 144.99 -33.98 144.99 -36 146 C-36 146.66 -36 147.32 -36 148 C-36.63808594 148.04898438 -37.27617188 148.09796875 -37.93359375 148.1484375 C-39.17302734 148.26058594 -39.17302734 148.26058594 -40.4375 148.375 C-41.26121094 148.44460938 -42.08492187 148.51421875 -42.93359375 148.5859375 C-43.95646484 148.79089844 -43.95646484 148.79089844 -45 149 C-45.33 149.66 -45.66 150.32 -46 151 C-46.33 150.67 -46.66 150.34 -47 150 C-49.00042512 150.00595365 -51.00077082 150.05558232 -53 150.125 C-60.65126417 150.17522712 -66.27103981 148.69865288 -72.8125 144.8125 C-75.96839591 142.67046518 -75.96839591 142.67046518 -80 143 C-80 142.34 -80 141.68 -80 141 C-84.33768102 138.83801833 -84.33768102 138.83801833 -89 138 C-89.2475 137.38125 -89.495 136.7625 -89.75 136.125 C-91.65684264 132.88336751 -94.12811279 132.31898313 -97.5625 131.0625 C-100 130 -100 130 -101.4375 128.4375 C-103.71483967 126.3423475 -105.99709203 126.33365644 -109 126 C-109 125.01 -109 124.02 -109 123 C-109.99 123 -110.98 123 -112 123 C-112.226875 122.443125 -112.45375 121.88625 -112.6875 121.3125 C-113.94752819 118.79811391 -113.94752819 118.79811391 -116.5625 116.75 C-119.28683312 113.67639341 -119.97522956 111.93605693 -120.28515625 107.9296875 C-119.7940245 104.6061384 -117.47712849 103.05420411 -115 101 C-115 100.34 -115 99.68 -115 99 C-113.68 98.67 -112.36 98.34 -111 98 C-111 97.34 -111 96.68 -111 96 C-109.68 96.33 -108.36 96.66 -107 97 C-107 96.34 -107 95.68 -107 95 C-104.58309124 95.47797076 -102.16647237 95.9573322 -99.75 96.4375 C-99.06808594 96.57220703 -98.38617187 96.70691406 -97.68359375 96.84570312 C-94.43530542 97.49220711 -91.20184022 98.15002695 -88 99 C-88 99.66 -88 100.32 -88 101 C-86.515 101.495 -86.515 101.495 -85 102 C-84.01 101.505 -84.01 101.505 -83 101 C-82.505 102.485 -82.505 102.485 -82 104 C-81.34 104 -80.68 104 -80 104 C-79.505 104.99 -79.505 104.99 -79 106 C-77.35 105.67 -75.7 105.34 -74 105 C-73.505 103.515 -73.505 103.515 -73 102 C-71.515 102.495 -71.515 102.495 -70 103 C-70 102.34 -70 101.68 -70 101 C-68.68 101 -67.36 101 -66 101 C-66 100.01 -66 99.02 -66 98 C-64.35 98 -62.7 98 -61 98 C-61 97.34 -61 96.68 -61 96 C-60.01 95.67 -59.02 95.34 -58 95 C-58 94.34 -58 93.68 -58 93 C-57.34 93 -56.68 93 -56 93 C-57.06071593 88.62756947 -57.06071593 88.62756947 -60 85.375 C-65.22957046 82.97811354 -70.54175614 80.81941462 -76 79 C-76.495 78.01 -76.495 78.01 -77 77 C-81.50286525 75.49284262 -86.25406051 74.69381036 -91 75 C-91 74.34 -91 73.68 -91 73 C-95.62 73 -100.24 73 -105 73 Z M-212.875 128.75 C-215.19876922 130.8938301 -215.19876922 130.8938301 -216 134 C-216.99 134 -217.98 134 -219 134 C-219 134.66 -219 135.32 -219 136 C-219.515625 136.103125 -220.03125 136.20625 -220.5625 136.3125 C-223.86789172 137.24478997 -226.89628829 138.53598504 -230 140 C-230.33 140.66 -230.66 141.32 -231 142 C-231.66 142 -232.32 142 -233 142 C-233.33 142.66 -233.66 143.32 -234 144 C-236.0625 144.625 -236.0625 144.625 -238 145 C-238 146.32 -238 147.64 -238 149 C-237.34 149.33 -236.68 149.66 -236 150 C-235.731875 150.78375 -235.46375 151.5675 -235.1875 152.375 C-234.21147732 155.19566593 -234.21147732 155.19566593 -231.5 156.5 C-228.43099435 158.34140339 -228.15444804 159.70157703 -227 163 C-225.39872736 164.96519824 -224.27721016 165.88239569 -221.9375 166.875 C-219.27583418 168.42048338 -219.07832738 170.16939063 -218 173 C-216.10415891 175.31377147 -216.10415891 175.31377147 -214 177 C-213.34 177 -212.68 177 -212 177 C-211.79375 177.721875 -211.5875 178.44375 -211.375 179.1875 C-209.51178872 182.99861399 -207.45127759 184.53480172 -204 187 C-203.01 187 -202.02 187 -201 187 C-201 187.66 -201 188.32 -201 189 C-200.34 189 -199.68 189 -199 189 C-198.95875 189.680625 -198.9175 190.36125 -198.875 191.0625 C-197.05117925 197.18532682 -191.46933193 201.63967616 -187 206 C-185.81115592 207.18615439 -184.62373737 208.37373872 -183.4375 209.5625 C-182.55191406 210.44808594 -182.55191406 210.44808594 -181.6484375 211.3515625 C-179.765625 213.234375 -177.8828125 215.1171875 -176 217 C-175.01 216.67 -174.02 216.34 -173 216 C-172.5978125 217.36125 -172.5978125 217.36125 -172.1875 218.75 C-171.07280038 221.80075685 -170.23521472 223.68199955 -168 226 C-167.195625 226.309375 -166.39125 226.61875 -165.5625 226.9375 C-162.28111603 228.29807384 -161.0750589 230.16408616 -159 233 C-158.46375 233.53625 -157.9275 234.0725 -157.375 234.625 C-156 236 -156 236 -154 239 C-153.34 239 -152.68 239 -152 239 C-151.67 238.34 -151.34 237.68 -151 237 C-148.68745988 235.95281202 -146.3514852 234.95653635 -144 234 C-140.67173953 232.56075223 -140.11820073 232.17730109 -138 229 C-137.01 229 -136.02 229 -135 229 C-135 228.01 -135 227.02 -135 226 C-131.535 225.505 -131.535 225.505 -128 225 C-128 223.68 -128 222.36 -128 221 C-129.65 220.67 -131.3 220.34 -133 220 C-133 219.34 -133 218.68 -133 218 C-135.63684747 215.60179695 -135.63684747 215.60179695 -139 215 C-139.33 214.01 -139.66 213.02 -140 212 C-141.485 211.505 -141.485 211.505 -143 211 C-143.99 211.495 -143.99 211.495 -145 212 C-145.33 211.01 -145.66 210.02 -146 209 C-146.99 209.495 -146.99 209.495 -148 210 C-146.25 206.125 -146.25 206.125 -144 205 C-144 204.34 -144 203.68 -144 203 C-142.35 202.67 -140.7 202.34 -139 202 C-138.505 200.515 -138.505 200.515 -138 199 C-136.68 199 -135.36 199 -134 199 C-133.34 198.34 -132.68 197.68 -132 197 C-130 195 -130 195 -127.1875 194.5625 C-123.95207361 194.21444965 -123.95207361 194.21444965 -121.5 192.3125 C-119 191 -119 191 -115.8125 191.8125 C-114.884375 192.204375 -113.95625 192.59625 -113 193 C-112.34 193 -111.68 193 -111 193 C-110 194 -109 195 -108 196 C-105.98330173 197.13350534 -105.98330173 197.13350534 -104 198 C-103.34 198.33 -102.68 198.66 -102 199 C-101.34 198.67 -100.68 198.34 -100 198 C-99.67 198.99 -99.34 199.98 -99 201 C-98.01 201 -97.02 201 -96 201 C-96 201.66 -96 202.32 -96 203 C-92.41672247 204.00217064 -92.41672247 204.00217064 -89 203 C-89 202.34 -89 201.68 -89 201 C-87.35 201 -85.7 201 -84 201 C-84 200.34 -84 199.68 -84 199 C-83.21625 198.690625 -82.4325 198.38125 -81.625 198.0625 C-79.07669872 197.07124962 -79.07669872 197.07124962 -77 196 C-77 195.34 -77 194.68 -77 194 C-76.21625 193.87625 -75.4325 193.7525 -74.625 193.625 C-71.85942178 193.20882007 -71.85942178 193.20882007 -70 191 C-69.83318891 187.91652174 -69.83318891 187.91652174 -70 185 C-73 183.66666667 -73 183.66666667 -76 185 C-76 184.34 -76 183.68 -76 183 C-79.82989106 181.19769832 -82.78121808 180.80377759 -87 181 C-87 180.34 -87 179.68 -87 179 C-87.66 179 -88.32 179 -89 179 C-89 178.34 -89 177.68 -89 177 C-90.01320313 176.70996094 -90.01320313 176.70996094 -91.046875 176.4140625 C-91.93890625 176.15367187 -92.8309375 175.89328125 -93.75 175.625 C-94.63171875 175.36976563 -95.5134375 175.11453125 -96.421875 174.8515625 C-100.025194 173.66137531 -102.84091632 172.10605579 -106 170 C-107.32 170 -108.64 170 -110 170 C-110 169.34 -110 168.68 -110 168 C-111.65 168 -113.3 168 -115 168 C-115 167.34 -115 166.68 -115 166 C-115.77085937 165.72285156 -116.54171875 165.44570313 -117.3359375 165.16015625 C-118.33882812 164.79792969 -119.34171875 164.43570313 -120.375 164.0625 C-121.37273437 163.70285156 -122.37046875 163.34320313 -123.3984375 162.97265625 C-126 162 -126 162 -128 161 C-128.99 161.495 -128.99 161.495 -130 162 C-130.33 161.01 -130.66 160.02 -131 159 C-132.7015625 158.814375 -132.7015625 158.814375 -134.4375 158.625 C-136.2009375 158.315625 -136.2009375 158.315625 -138 158 C-138.495 157.01 -138.495 157.01 -139 156 C-139.66 156.33 -140.32 156.66 -141 157 C-141.495 155.515 -141.495 155.515 -142 154 C-144.30657014 153.24592899 -146.645752 152.588562 -149 152 C-151.82680238 150.96580401 -154.34815576 149.81141563 -157 148.375 C-160.006678 146.99693925 -161.75064118 146.71329187 -165 147 C-165.495 146.01 -165.495 146.01 -166 145 C-167.6754508 144.12169275 -169.3917895 143.32048443 -171.125 142.5625 C-172.11757813 142.12808594 -173.11015625 141.69367188 -174.1328125 141.24609375 C-175.07898438 140.83488281 -176.02515625 140.42367187 -177 140 C-177.71929688 139.66097656 -178.43859375 139.32195312 -179.1796875 138.97265625 C-182.95236228 137.14436831 -182.95236228 137.14436831 -187 138 C-187 137.01 -187 136.02 -187 135 C-187.928125 134.87625 -188.85625 134.7525 -189.8125 134.625 C-193 134 -193 134 -196 132 C-197.9896995 131.60986284 -199.99019869 131.26797351 -202 131 C-202.495 129.515 -202.495 129.515 -203 128 C-208.14988568 126.75237118 -208.14988568 126.75237118 -212.875 128.75 Z M-277 176 C-277 176.66 -277 177.32 -277 178 C-277.886875 177.814375 -278.77375 177.62875 -279.6875 177.4375 C-282.90270617 177.01285013 -284.89203107 177.26390209 -288 178 C-289.32 178 -290.64 178 -292 178 C-292 178.66 -292 179.32 -292 180 C-292.99 179.67 -293.98 179.34 -295 179 C-296.8802101 179.7460698 -296.8802101 179.7460698 -298.6875 180.9375 C-300.3271875 181.9584375 -300.3271875 181.9584375 -302 183 C-302 183.66 -302 184.32 -302 185 C-304.97 185.99 -307.94 186.98 -311 188 C-311 188.66 -311 189.32 -311 190 C-311.66 190 -312.32 190 -313 190 C-313 190.66 -313 191.32 -313 192 C-313.99 192 -314.98 192 -316 192 C-316 192.66 -316 193.32 -316 194 C-318.31 194.33 -320.62 194.66 -323 195 C-323 195.99 -323 196.98 -323 198 C-323.99 198 -324.98 198 -326 198 C-326 198.66 -326 199.32 -326 200 C-326.99 199.67 -327.98 199.34 -329 199 C-329.33 200.32 -329.66 201.64 -330 203 C-330.99 202.67 -331.98 202.34 -333 202 C-333.4125 202.474375 -333.825 202.94875 -334.25 203.4375 C-336.182185 205.16266518 -337.48192275 205.56584875 -340 206 C-340 206.66 -340 207.32 -340 208 C-341.98 208.495 -341.98 208.495 -344 209 C-342.61235344 214.86070752 -342.61235344 214.86070752 -338.1875 218.6875 C-337.50042969 219.12449219 -336.81335938 219.56148437 -336.10546875 220.01171875 C-333.78415468 221.28327142 -333.78415468 221.28327142 -330 221 C-330 221.66 -330 222.32 -330 223 C-328.54390431 224.29010336 -328.54390431 224.29010336 -326.6875 225.5 C-326.07261719 225.9228125 -325.45773437 226.345625 -324.82421875 226.78125 C-321.49868543 229.03577884 -321.49868543 229.03577884 -318 231 C-317.01 230.505 -317.01 230.505 -316 230 C-315.67 230.99 -315.34 231.98 -315 233 C-313.27062171 235.31278117 -313.27062171 235.31278117 -311 237 C-308.78141747 236.86358623 -308.78141747 236.86358623 -307 236 C-306.505 237.98 -306.505 237.98 -306 240 C-305.34 240 -304.68 240 -304 240 C-303.01 241.485 -303.01 241.485 -302 243 C-299.69631264 244.06652192 -297.35981813 245.06421005 -295 246 C-293.65986503 246.65288627 -292.32258472 247.31225595 -291 248 C-291 248.66 -291 249.32 -291 250 C-289.5459375 250.680625 -289.5459375 250.680625 -288.0625 251.375 C-285 253 -285 253 -284 255 C-281.66682784 255.77772405 -279.38564077 256.42415568 -277 257 C-277 257.99 -277 258.98 -277 260 C-276.01 260 -275.02 260 -274 260 C-273.67 260.99 -273.34 261.98 -273 263 C-272.175 263.33 -271.35 263.66 -270.5 264 C-269.675 264.33 -268.85 264.66 -268 265 C-267.67 265.99 -267.34 266.98 -267 268 C-266.38125 268.144375 -265.7625 268.28875 -265.125 268.4375 C-262.29228518 269.18733627 -261.70349229 270.70398865 -260 273 C-259.01 273 -258.02 273 -257 273 C-257 273.66 -257 274.32 -257 275 C-256.236875 275.268125 -255.47375 275.53625 -254.6875 275.8125 C-252 277 -252 277 -250.5 278.625 C-249.00733348 280.27980035 -249.00733348 280.27980035 -246.3125 280.1875 C-245.549375 280.125625 -244.78625 280.06375 -244 280 C-243.67 281.32 -243.34 282.64 -243 284 C-241.02 284.33 -239.04 284.66 -237 285 C-237 285.66 -237 286.32 -237 287 C-235.35 287 -233.7 287 -232 287 C-232 286.34 -232 285.68 -232 285 C-231.01 284.95875 -230.02 284.9175 -229 284.875 C-224.13408914 284.20830056 -220.45283128 281.38108414 -217 278 C-217 277.34 -217 276.68 -217 276 C-216.01 276.33 -215.02 276.66 -214 277 C-213.67 276.01 -213.34 275.02 -213 274 C-212.01 274.33 -211.02 274.66 -210 275 C-209.5875 274.54625 -209.175 274.0925 -208.75 273.625 C-206.90144115 271.90848107 -205.2735798 271.0699199 -203 270 C-202.154375 269.484375 -201.30875 268.96875 -200.4375 268.4375 C-198 267 -198 267 -195 266 C-195 265.01 -195 264.02 -195 263 C-193.6696875 262.9071875 -193.6696875 262.9071875 -192.3125 262.8125 C-188.21893812 261.80841878 -186.82473989 260.04774567 -184 257 C-183.2575 256.649375 -182.515 256.29875 -181.75 255.9375 C-181.1725 255.628125 -180.595 255.31875 -180 255 C-179.40929986 253.05396726 -179.40929986 253.05396726 -179 251 C-178.51015625 250.57976562 -178.0203125 250.15953125 -177.515625 249.7265625 C-175.40807154 247.32568974 -175.49776778 245.46205231 -175.3125 242.3125 C-175.21388672 240.82169922 -175.21388672 240.82169922 -175.11328125 239.30078125 C-175.07589844 238.54152344 -175.03851562 237.78226563 -175 237 C-175.66 237 -176.32 237 -177 237 C-176.67 236.01 -176.34 235.02 -176 234 C-176.99 234 -177.98 234 -179 234 C-178.67 233.01 -178.34 232.02 -178 231 C-178.99 231 -179.98 231 -181 231 C-180.67 230.01 -180.34 229.02 -180 228 C-180.94875 227.236875 -181.8975 226.47375 -182.875 225.6875 C-185.16609895 223.84465954 -186.31224944 222.53162583 -188 220 C-189.175625 219.67 -190.35125 219.34 -191.5625 219 C-192.696875 218.67 -193.83125 218.34 -195 218 C-195.33 217.01 -195.66 216.02 -196 215 C-196.99 215.33 -197.98 215.66 -199 216 C-199.33 215.01 -199.66 214.02 -200 213 C-201.62318979 212.63762737 -203.2486358 212.28534843 -204.875 211.9375 C-205.77992188 211.74027344 -206.68484375 211.54304688 -207.6171875 211.33984375 C-210.01014125 210.76797843 -210.01014125 210.76797843 -212 212 C-212 211.34 -212 210.68 -212 210 C-214.41674224 209.97294692 -216.8331794 209.95313562 -219.25 209.9375 C-219.93191406 209.92912109 -220.61382813 209.92074219 -221.31640625 209.91210938 C-224.69342554 209.89571608 -227.77291639 209.94371232 -231 211 C-232.13333333 205.45925926 -232.13333333 205.45925926 -231.4375 203.0625 C-230.88632377 200.46409778 -231.4255605 199.1786548 -232.4375 196.75 C-232.72496094 196.04359375 -233.01242187 195.3371875 -233.30859375 194.609375 C-233.65083984 193.81273437 -233.65083984 193.81273437 -234 193 C-234.66 193 -235.32 193 -236 193 C-236.99 191.02 -236.99 191.02 -238 189 C-238.66 189 -239.32 189 -240 189 C-240.04125 188.38125 -240.0825 187.7625 -240.125 187.125 C-240.41375 186.42375 -240.7025 185.7225 -241 185 C-243.97503122 183.84164327 -243.97503122 183.84164327 -247 183 C-247.495 182.01 -247.495 182.01 -248 181 C-250.32315031 180.2986716 -252.65789079 179.63514826 -255 179 C-255.66 178.608125 -256.32 178.21625 -257 177.8125 C-260.1081989 176.5497942 -262.78224825 177.38120159 -266 178 C-266 177.34 -266 176.68 -266 176 C-269.63 176 -273.26 176 -277 176 Z M-27 191 C-27 191.66 -27 192.32 -27 193 C-28.65 193.33 -30.3 193.66 -32 194 C-32 194.66 -32 195.32 -32 196 C-32.99 195.67 -33.98 195.34 -35 195 C-35.33 195.66 -35.66 196.32 -36 197 C-36.66 197 -37.32 197 -38 197 C-38 197.66 -38 198.32 -38 199 C-39.32 199 -40.64 199 -42 199 C-42 199.66 -42 200.32 -42 201 C-43.32 201.33 -44.64 201.66 -46 202 C-46 202.66 -46 203.32 -46 204 C-46.99 204 -47.98 204 -49 204 C-49 204.66 -49 205.32 -49 206 C-49.70125 206.103125 -50.4025 206.20625 -51.125 206.3125 C-54.40038923 207.09574525 -57.03583626 208.41911267 -60 210 C-60.66 210.33 -61.32 210.66 -62 211 C-62 211.66 -62 212.32 -62 213 C-64.65228812 214.07525194 -67.28368454 215.09456151 -70 216 C-70 216.66 -70 217.32 -70 218 C-71.65 218.33 -73.3 218.66 -75 219 C-75 219.66 -75 220.32 -75 221 C-76.98 221.495 -76.98 221.495 -79 222 C-79 222.66 -79 223.32 -79 224 C-78.34 224 -77.68 224 -77 224 C-76.67 224.99 -76.34 225.98 -76 227 C-73.29688965 229.13695245 -73.29688965 229.13695245 -70.0625 231.1875 C-68.98097656 231.90292969 -67.89945313 232.61835938 -66.78515625 233.35546875 C-64.25204113 235.16948149 -64.25204113 235.16948149 -62 235 C-62 235.66 -62 236.32 -62 237 C-61.21625 237.0825 -60.4325 237.165 -59.625 237.25 C-57 238 -57 238 -55.875 239.875 C-55.441875 240.926875 -55.441875 240.926875 -55 242 C-53.5833253 243.7511573 -53.5833253 243.7511573 -52 245 C-51.34 245 -50.68 245 -50 245 C-49.67 245.66 -49.34 246.32 -49 247 C-46.47266765 247.65555119 -46.47266765 247.65555119 -44 248 C-44 248.66 -44 249.32 -44 250 C-42.5498595 251.36233884 -42.5498595 251.36233884 -40.6875 252.625 C-39.76517578 253.29402344 -39.76517578 253.29402344 -38.82421875 253.9765625 C-36.91255444 255.24464281 -36.91255444 255.24464281 -34 255 C-33.67 255.66 -33.34 256.32 -33 257 C-29.43823349 260.60963971 -26.27440258 263.68033924 -21 264 C-20.67 264.99 -20.34 265.98 -20 267 C-18.35 267.33 -16.7 267.66 -15 268 C-15 268.66 -15 269.32 -15 270 C-13.02 270.33 -11.04 270.66 -9 271 C-8.67 271.99 -8.34 272.98 -8 274 C-7.34 273.67 -6.68 273.34 -6 273 C-6 273.99 -6 274.98 -6 276 C-5.34 276 -4.68 276 -4 276 C-3.67 276.66 -3.34 277.32 -3 278 C0.23348712 280.30036185 0.23348712 280.30036185 4 281 C4 281.66 4 282.32 4 283 C5.76710099 284.23435061 7.59019568 285.38926416 9.4375 286.5 C14.89488117 289.78976234 14.89488117 289.78976234 16 292 C18.62616876 293.17486497 21.27044585 294.09014862 24 295 C24 294.34 24 293.68 24 293 C24.66 292.7525 25.32 292.505 26 292.25 C29.10853573 290.95477678 32.05520534 289.46608036 35.03515625 287.90234375 C37 287 37 287 39.1328125 286.49609375 C41.19627145 286.11990318 41.19627145 286.11990318 42.8125 284.125 C45.58683604 281.4299307 48.4306332 280.44027081 52 279 C54.85248773 277.5578092 54.85248773 277.5578092 57 276 C57 275.34 57 274.68 57 274 C57.804375 273.773125 58.60875 273.54625 59.4375 273.3125 C63.91285739 271.66368412 67.88721318 269.39455588 72 267 C72 266.34 72 265.68 72 265 C72.99 265 73.98 265 75 265 C75 264.34 75 263.68 75 263 C75.99 263 76.98 263 78 263 C77.67 262.01 77.34 261.02 77 260 C76.34 260 75.68 260 75 260 C74.67 259.01 74.34 258.02 74 257 C71.03 256.505 71.03 256.505 68 256 C68 255.34 68 254.68 68 254 C67.34 254 66.68 254 66 254 C65.67 253.01 65.34 252.02 65 251 C62.28407658 249.05852742 62.28407658 249.05852742 59 248 C54.92376898 248.89478242 52.05105787 251.21046138 49 254 C49 254.66 49 255.32 49 256 C47.91525391 256.14115234 47.91525391 256.14115234 46.80859375 256.28515625 C43.56275616 257.11128737 41.7194981 258.41851724 39.0625 260.4375 C35.46508627 263.06162242 32.39535394 264.95899512 28 266 C28 266.66 28 267.32 28 268 C22.77674332 266.22940451 19.27580085 264.54280642 15 261 C14.01 261 13.02 261 12 261 C11.67 260.01 11.34 259.02 11 258 C9.17241594 256.62181956 9.17241594 256.62181956 7 255.4375 C3.10137672 253.20275344 3.10137672 253.20275344 2 251 C4.89693192 249.49145942 7.82016026 248.2765128 10.875 247.125 C13.94154942 245.92092839 16.67680023 244.70536973 19.375 242.8125 C21.7794302 241.1522982 23.2253824 240.59456091 26 240 C26.99 239.01 26.99 239.01 28 238 C29.98356483 237.28591666 31.98315437 236.61382258 34 236 C33.505 233.03 33.505 233.03 33 230 C31.35 229.67 29.7 229.34 28 229 C28 228.34 28 227.68 28 227 C26.906875 226.38125 25.81375 225.7625 24.6875 225.125 C22.3837744 223.82100438 20.20837951 222.47225301 18 221 C15.19872957 220.79502899 13.52545768 220.73727116 11 222 C11 222.66 11 223.32 11 224 C10.01 224 9.02 224 8 224 C8 224.66 8 225.32 8 226 C6.515 225.505 6.515 225.505 5 225 C4.01 225.495 4.01 225.495 3 226 C3 226.66 3 227.32 3 228 C2.34 228 1.68 228 1 228 C1 228.66 1 229.32 1 230 C0.01 230 -0.98 230 -2 230 C-2 230.66 -2 231.32 -2 232 C-2.7425 232.144375 -3.485 232.28875 -4.25 232.4375 C-6.52027739 232.90187492 -8.75759479 233.41863569 -11 234 C-11 234.99 -11 235.98 -11 237 C-11.78375 237.144375 -12.5675 237.28875 -13.375 237.4375 C-15.96421018 237.87798925 -15.96421018 237.87798925 -18 239 C-18.33 238.01 -18.66 237.02 -19 236 C-20.65204456 235.29788106 -22.31923769 234.63028587 -24 234 C-24.33 233.34 -24.66 232.68 -25 232 C-27.52733235 231.34444881 -27.52733235 231.34444881 -30 231 C-30 230.34 -30 229.68 -30 229 C-30.66 229 -31.32 229 -32 229 C-32 228.34 -32 227.68 -32 227 C-32.99 227 -33.98 227 -35 227 C-35.33 226.01 -35.66 225.02 -36 224 C-38.00016466 222.79117904 -38.00016466 222.79117904 -40 222 C-39.18273437 221.91878906 -38.36546875 221.83757812 -37.5234375 221.75390625 C-33.12540179 220.81286313 -29.58755308 219.01192878 -25.625 216.9375 C-24.88894531 216.56044922 -24.15289063 216.18339844 -23.39453125 215.79492188 C-21.59260354 214.87055636 -19.79576901 213.93627386 -18 213 C-18 212.34 -18 211.68 -18 211 C-17.01 211 -16.02 211 -15 211 C-14.67 210.34 -14.34 209.68 -14 209 C-12.17712703 208.06154746 -10.31635447 207.19564908 -8.4375 206.375 C-7.42558594 205.92898438 -6.41367187 205.48296875 -5.37109375 205.0234375 C-4.58863281 204.68570313 -3.80617188 204.34796875 -3 204 C-3 203.01 -3 202.02 -3 201 C-3.99 201 -4.98 201 -6 201 C-6.495 199.515 -6.495 199.515 -7 198 C-7.99 198 -8.98 198 -10 198 C-10.08507812 197.40703125 -10.17015625 196.8140625 -10.2578125 196.203125 C-11.21199246 193.37071712 -12.47534178 192.49041146 -14.875 190.75 C-15.57367187 190.22921875 -16.27234375 189.7084375 -16.9921875 189.171875 C-21.02589215 186.81757267 -23.49445794 188.53664612 -27 191 Z M-127 247 C-128.39992188 247.48339844 -128.39992188 247.48339844 -129.828125 247.9765625 C-135.00446197 249.88281833 -138.3073521 251.74786 -142 256 C-142.99 256.66 -143.98 257.32 -145 258 C-145.69100553 259.99172182 -146.35902703 261.99161804 -147 264 C-147.66 264.33 -148.32 264.66 -149 265 C-151.20583444 268.30875166 -151.25494037 271.09091428 -151 275 C-150.67 275.66 -150.34 276.32 -150 277 C-149.87625 277.721875 -149.7525 278.44375 -149.625 279.1875 C-148.83086782 282.76109481 -147.58848143 285.69595862 -146 289 C-145.34 289.33 -144.68 289.66 -144 290 C-143.896875 290.598125 -143.79375 291.19625 -143.6875 291.8125 C-142.6984083 294.95960996 -140.58521597 296.06108802 -138 298 C-137.67 298.66 -137.34 299.32 -137 300 C-136.01 300.33 -135.02 300.66 -134 301 C-133.34 301.99 -132.68 302.98 -132 304 C-131.01 304 -130.02 304 -129 304 C-129 304.99 -129 305.98 -129 307 C-127.34076462 308.47389489 -127.34076462 308.47389489 -125.1875 309.6875 C-124.47980469 310.12449219 -123.77210938 310.56148438 -123.04296875 311.01171875 C-120.92814093 312.21773547 -120.92814093 312.21773547 -118 312 C-118 312.66 -118 313.32 -118 314 C-117.236875 314.268125 -116.47375 314.53625 -115.6875 314.8125 C-113.0427406 315.98111462 -111.99065202 317.00934798 -110 319 C-109.175 319.33 -108.35 319.66 -107.5 320 C-105 321 -105 321 -103.7734375 322.3671875 C-101.24000907 324.69972734 -98.2660059 325.8254986 -95.125 327.125 C-94.51269531 327.38925781 -93.90039062 327.65351563 -93.26953125 327.92578125 C-90.55804886 329.06959716 -88.01175173 329.99773883 -85.1171875 330.5546875 C-84.41851563 330.70164062 -83.71984375 330.84859375 -83 331 C-82.67 331.66 -82.34 332.32 -82 333 C-75.24029344 336.84074236 -69.27933629 337.20273565 -61.6875 337.25 C-60.87087891 337.270625 -60.05425781 337.29125 -59.21289062 337.3125 C-53.42745183 337.34937929 -49.32100557 336.25843323 -44 334 C-42.67242424 333.64442793 -41.340103 333.30498005 -40 333 C-40 332.34 -40 331.68 -40 331 C-35.545 330.01 -35.545 330.01 -31 329 C-31 328.34 -31 327.68 -31 327 C-30.236875 326.87625 -29.47375 326.7525 -28.6875 326.625 C-25.79732864 326.11897208 -25.79732864 326.11897208 -23 324 C-23 323.34 -23 322.68 -23 322 C-21.8553125 321.5978125 -21.8553125 321.5978125 -20.6875 321.1875 C-17.22932941 319.65947113 -15.62380009 318.24760019 -13.9375 314.875 C-13 313 -13 313 -11 312 C-8.78856449 305.36569347 -10.30311077 300.13173323 -13 294 C-13.309375 293.2575 -13.61875 292.515 -13.9375 291.75 C-16.04337739 288.28149606 -18.15167241 286.28277586 -22 285 C-22.33 284.01 -22.66 283.02 -23 282 C-24.32 282 -25.64 282 -27 282 C-27.99 280.02 -27.99 280.02 -29 278 C-30.32 278.33 -31.64 278.66 -33 279 C-33 279.66 -33 280.32 -33 281 C-34.485 280.505 -34.485 280.505 -36 280 C-36 280.66 -36 281.32 -36 282 C-36.78375 282.144375 -37.5675 282.28875 -38.375 282.4375 C-40.96421018 282.87798925 -40.96421018 282.87798925 -43 284 C-43 284.66 -43 285.32 -43 286 C-43.556875 286.103125 -44.11375 286.20625 -44.6875 286.3125 C-47.49459905 287.14704296 -49.60599609 288.31772698 -52 290 C-52.33 290.99 -52.66 291.98 -53 293 C-51.11683841 294.10836423 -51.11683841 294.10836423 -49 295 C-48.34 294.67 -47.68 294.34 -47 294 C-46.67 294.99 -46.34 295.98 -46 297 C-44.68799596 298.35432675 -43.35368596 299.68733482 -42 301 C-40 304 -40 304 -40.25 306 C-41.48444973 309.29186595 -42.69163676 310.82479361 -45.75 312.5625 C-52.05360874 315.35063463 -56.18353447 316.25374277 -63 315 C-63.763125 314.89816406 -64.52625 314.79632813 -65.3125 314.69140625 C-71.71189492 313.69662851 -76.84666572 311.3042445 -82.53125 308.2421875 C-84.83715634 306.85017544 -84.83715634 306.85017544 -87 307 C-87 306.34 -87 305.68 -87 305 C-90.80427492 302.7986134 -90.80427492 302.7986134 -95 302 C-95 301.34 -95 300.68 -95 300 C-96.45537568 299.16151196 -97.91440373 298.32936066 -99.375 297.5 C-100.18710937 297.0359375 -100.99921875 296.571875 -101.8359375 296.09375 C-103.89336874 294.84964141 -103.89336874 294.84964141 -106 295 C-106 294.01 -106 293.02 -106 292 C-107.36125 291.38125 -107.36125 291.38125 -108.75 290.75 C-112.44304349 288.76143812 -115.10562452 286.78875097 -117 283 C-117.99 282.34 -118.98 281.68 -120 281 C-121.53015536 276.7009921 -122.04018963 273.80379268 -121.8125 269.25 C-119.3417117 264.81962097 -116.70176537 264.04785083 -111.96875 262.578125 C-107.74291241 261.75519873 -104.17601357 262.15561923 -100 263 C-99.34 263 -98.68 263 -98 263 C-97.01 263 -96.02 263 -95 263 C-95 263.66 -95 264.32 -95 265 C-93.865625 265.268125 -92.73125 265.53625 -91.5625 265.8125 C-90.386875 266.204375 -89.21125 266.59625 -88 267 C-87.505 268.485 -87.505 268.485 -87 270 C-84.39023408 271.05207123 -84.39023408 271.05207123 -81 271 C-78.8819213 269.71671961 -77.07300718 268.21749532 -75.16796875 266.63671875 C-71.75929795 264.06332584 -67.95355345 262.5557965 -64 261 C-64.33 259.35 -64.66 257.7 -65 256 C-66.32 255.67 -67.64 255.34 -69 255 C-69 254.34 -69 253.68 -69 253 C-70.0725 252.54625 -71.145 252.0925 -72.25 251.625 C-74.30482173 250.75087221 -76.27327148 249.85577339 -78.25 248.8125 C-80.13193471 247.78944435 -80.13193471 247.78944435 -83 248 C-83.495 246.515 -83.495 246.515 -84 245 C-85.299375 244.855625 -86.59875 244.71125 -87.9375 244.5625 C-91.875 244.125 -91.875 244.125 -93 243 C-95.75615706 242.73384749 -98.48730373 242.53025896 -101.25 242.375 C-102.01441406 242.3234375 -102.77882813 242.271875 -103.56640625 242.21875 C-112.09749733 241.71778783 -118.99773715 244.19323617 -127 247 Z M-358 260 C-358 260.66 -358 261.32 -358 262 C-358.5775 262.12375 -359.155 262.2475 -359.75 262.375 C-362.05792218 263.0160895 -363.88493048 263.88025731 -366 265 C-368.99398428 266.527543 -371.80925743 267.93641914 -375 269 C-375 269.66 -375 270.32 -375 271 C-376.11375 271.1546875 -376.11375 271.1546875 -377.25 271.3125 C-380.23008479 272.0575212 -381.60879792 273.13187337 -384 275 C-385.64797236 275.71162443 -387.31165408 276.39031953 -389 277 C-389 277.66 -389 278.32 -389 279 C-389.99 278.67 -390.98 278.34 -392 278 C-394.33801572 278.97524008 -394.33801572 278.97524008 -396.6875 280.4375 C-397.49574219 280.91058594 -398.30398438 281.38367188 -399.13671875 281.87109375 C-399.75160156 282.24363281 -400.36648438 282.61617188 -401 283 C-401 283.66 -401 284.32 -401 285 C-401.99 285 -402.98 285 -404 285 C-404 285.66 -404 286.32 -404 287 C-404.9075 287.103125 -405.815 287.20625 -406.75 287.3125 C-410.14848981 288.03141131 -411.36623703 288.86006759 -414 291 C-415.051875 291.515625 -416.10375 292.03125 -417.1875 292.5625 C-420.09641953 293.69875811 -420.09641953 293.69875811 -421 296 C-422.70870059 296.75577141 -424.42030659 297.50639199 -426.15234375 298.20703125 C-428.58001555 299.24892845 -430.76647705 300.59607129 -433 302 C-433.99 302.495 -433.99 302.495 -435 303 C-435 303.66 -435 304.32 -435 305 C-436.485 304.505 -436.485 304.505 -438 304 C-440.33801572 304.97524008 -440.33801572 304.97524008 -442.6875 306.4375 C-443.49574219 306.91058594 -444.30398438 307.38367188 -445.13671875 307.87109375 C-445.75160156 308.24363281 -446.36648438 308.61617188 -447 309 C-447 309.66 -447 310.32 -447 311 C-447.99 311 -448.98 311 -450 311 C-450 311.66 -450 312.32 -450 313 C-450.63808594 313.12117188 -451.27617187 313.24234375 -451.93359375 313.3671875 C-453.17302734 313.61855469 -453.17302734 313.61855469 -454.4375 313.875 C-455.26121094 314.03742188 -456.08492188 314.19984375 -456.93359375 314.3671875 C-457.61550781 314.57601562 -458.29742187 314.78484375 -459 315 C-459.495 315.99 -459.495 315.99 -460 317 C-460.66 317 -461.32 317 -462 317 C-462 317.66 -462 318.32 -462 319 C-462.804375 319.12375 -463.60875 319.2475 -464.4375 319.375 C-465.283125 319.58125 -466.12875 319.7875 -467 320 C-467.495 320.99 -467.495 320.99 -468 322 C-469.98636298 322.70626239 -471.98848259 323.36893571 -474 324 C-476.59473022 325.15321343 -477.9713088 325.9713088 -480 328 C-481.65438613 328.69658363 -483.32254318 329.36096883 -485 330 C-486.34090759 330.65129797 -487.67592331 331.31513275 -489 332 C-489.99 332.495 -489.99 332.495 -491 333 C-491 333.66 -491 334.32 -491 335 C-493.475 335.99 -493.475 335.99 -496 337 C-496.33 336.01 -496.66 335.02 -497 334 C-499.58072903 331.67734388 -500.45176068 331 -504 331 C-504 330.34 -504 329.68 -504 329 C-505.65 328.67 -507.3 328.34 -509 328 C-509.33 327.01 -509.66 326.02 -510 325 C-513.05508026 321.96722801 -513.05508026 321.96722801 -517 321 C-517.66 320.01 -518.32 319.02 -519 318 C-520.32 318.66 -521.64 319.32 -523 320 C-522.979375 320.721875 -522.95875 321.44375 -522.9375 322.1875 C-523.09090909 329.09090909 -523.09090909 329.09090909 -526 332 C-526.36894582 334.03060659 -526.36894582 334.03060659 -526.4140625 336.3515625 C-526.45273437 337.20234375 -526.49140625 338.053125 -526.53125 338.9296875 C-526.5621875 339.81914062 -526.593125 340.70859375 -526.625 341.625 C-526.66367187 342.5221875 -526.70234375 343.419375 -526.7421875 344.34375 C-526.83659357 346.5622927 -526.92216748 348.78082403 -527 351 C-527.66 351 -528.32 351 -529 351 C-530.72148402 360.94588472 -530.72148402 360.94588472 -531 371 C-531.66 371 -532.32 371 -533 371 C-533 372.32 -533 373.64 -533 375 C-530.33446563 375.88851146 -528.5579683 376.16731278 -525.8046875 376.28125 C-524.60779297 376.33732422 -524.60779297 376.33732422 -523.38671875 376.39453125 C-521.7044408 376.46517123 -520.02214895 376.53548071 -518.33984375 376.60546875 C-512.10131006 376.89868994 -512.10131006 376.89868994 -511 378 C-509.36882522 378.18182092 -507.73034203 378.29858512 -506.09155273 378.38891602 C-504.51741859 378.4788961 -504.51741859 378.4788961 -502.91148376 378.57069397 C-501.76378006 378.63115402 -500.61607635 378.69161407 -499.43359375 378.75390625 C-498.252173 378.81907944 -497.07075226 378.88425262 -495.85353088 378.95140076 C-493.33745622 379.08896699 -490.82125035 379.22415013 -488.30493164 379.35717773 C-484.50562261 379.55888337 -480.7069288 379.77004612 -476.90820312 379.98242188 C-464.59593685 380.6550852 -452.33271729 381.24927961 -440 381 C-440.81809394 376.72773167 -442.78117302 374.91227203 -446 372 C-448.61941217 370.25372522 -450.03824877 369.61277612 -453 369 C-453 368.34 -453 367.68 -453 367 C-453.66 367 -454.32 367 -455 367 C-455.33 366.01 -455.66 365.02 -456 364 C-456.66 364 -457.32 364 -458 364 C-458.33 363.01 -458.66 362.02 -459 361 C-460.65 360.67 -462.3 360.34 -464 360 C-464.33 359.01 -464.66 358.02 -465 357 C-465.99 357.495 -465.99 357.495 -467 358 C-467 357.01 -467 356.02 -467 355 C-466.236875 354.87625 -465.47375 354.7525 -464.6875 354.625 C-461.79732864 354.11897208 -461.79732864 354.11897208 -459 352 C-459 351.34 -459 350.68 -459 350 C-458.278125 350.04125 -457.55625 350.0825 -456.8125 350.125 C-453.79270631 349.99078695 -451.73064271 349.24829381 -449 348 C-449 347.01 -449 346.02 -449 345 C-447.515 345.495 -447.515 345.495 -446 346 C-446 345.34 -446 344.68 -446 344 C-445.01 344 -444.02 344 -443 344 C-442.67 343.34 -442.34 342.68 -442 342 C-441.01 341.67 -440.02 341.34 -439 341 C-439 340.34 -439 339.68 -439 339 C-438.0925 338.87625 -437.185 338.7525 -436.25 338.625 C-433.41029677 338.07890323 -431.47409409 337.42736197 -429 336 C-429 335.34 -429 334.68 -429 334 C-428.34 334 -427.68 334 -427 334 C-427 333.34 -427 332.68 -427 332 C-425.9275 331.896875 -424.855 331.79375 -423.75 331.6875 C-420.15260731 331.02797801 -418.54223809 330.54223809 -416 328 C-416 327.34 -416 326.68 -416 326 C-414.515 326.495 -414.515 326.495 -413 327 C-412.67 326.34 -412.34 325.68 -412 325 C-410.0625 324.4375 -410.0625 324.4375 -408 324 C-407.34 323.67 -406.68 323.34 -406 323 C-406 322.34 -406 321.68 -406 321 C-405.01 321 -404.02 321 -403 321 C-403 320.34 -403 319.68 -403 319 C-401.906875 318.896875 -400.81375 318.79375 -399.6875 318.6875 C-396.10679821 318.29881196 -396.10679821 318.29881196 -394.0625 316.5625 C-392.81256333 315.03927901 -392.81256333 315.03927901 -393 313 C-392.0925 312.87625 -391.185 312.7525 -390.25 312.625 C-387.41029677 312.07890323 -385.47409409 311.42736197 -383 310 C-383 309.34 -383 308.68 -383 308 C-382.01 308 -381.02 308 -380 308 C-380 307.34 -380 306.68 -380 306 C-377.03 305.505 -377.03 305.505 -374 305 C-374 304.34 -374 303.68 -374 303 C-372.68 303 -371.36 303 -370 303 C-370 302.34 -370 301.68 -370 301 C-369.01 301 -368.02 301 -367 301 C-367 300.34 -367 299.68 -367 299 C-366.443125 299.2475 -365.88625 299.495 -365.3125 299.75 C-362.78426718 300.27482661 -362.78426718 300.27482661 -360.3125 298.1875 C-357.96652351 296.21842035 -357.96652351 296.21842035 -357 294 C-355.906875 293.690625 -354.81375 293.38125 -353.6875 293.0625 C-350.23377009 292.06735748 -348.71858661 291.17486928 -346 289 C-344.35202764 288.28837557 -342.68834592 287.60968047 -341 287 C-341 286.34 -341 285.68 -341 285 C-339.68 285 -338.36 285 -337 285 C-337 284.34 -337 283.68 -337 283 C-336.01 283 -335.02 283 -334 283 C-334 282.34 -334 281.68 -334 281 C-333.01 281 -332.02 281 -331 281 C-331.33 279.35 -331.66 277.7 -332 276 C-333.65 275.67 -335.3 275.34 -337 275 C-337.33 274.01 -337.66 273.02 -338 272 C-338.99 272 -339.98 272 -341 272 C-341 271.34 -341 270.68 -341 270 C-341.66 270 -342.32 270 -343 270 C-343 269.34 -343 268.68 -343 268 C-344.64333504 266.96210419 -346.31243867 265.96432076 -348 265 C-348.99 264.01 -348.99 264.01 -350 263 C-350.66 263.33 -351.32 263.66 -352 264 C-352.33 263.01 -352.66 262.02 -353 261 C-353.66 261.33 -354.32 261.66 -355 262 C-355 261.34 -355 260.68 -355 260 C-355.99 260 -356.98 260 -358 260 Z M-209 295 C-211.0695812 296.17276268 -213.10767781 297.03972754 -215.33984375 297.86328125 C-218.06650285 299.02841752 -220.2656988 300.42274924 -222.6875 302.125 C-226.77990431 305 -226.77990431 305 -229 305 C-229.33 306.65 -229.66 308.3 -230 310 C-227.525 310.99 -227.525 310.99 -225 312 C-225.33 312.99 -225.66 313.98 -226 315 C-223.28395285 317.87420123 -223.28395285 317.87420123 -220 320 C-219.5978125 321.1446875 -219.5978125 321.1446875 -219.1875 322.3125 C-218.1667276 325.1821615 -218.1667276 325.1821615 -215.5 327 C-212.72181846 329.22254523 -212.22766708 330.7554513 -211 334 C-209.515 334.495 -209.515 334.495 -208 335 C-207.525625 335.804375 -207.05125 336.60875 -206.5625 337.4375 C-204.90447019 340.15666889 -203.91563061 340.89407115 -201 342 C-201 343.32 -201 344.64 -201 346 C-200.34 346 -199.68 346 -199 346 C-198.7525 346.5775 -198.505 347.155 -198.25 347.75 C-197.08871203 350.08298867 -197.08871203 350.08298867 -195.125 351.875 C-193 354 -193 354 -191.25 356.75 C-187.6507617 361.94889977 -183.26872614 366.48751591 -178 370 C-177.31867549 371.66072849 -176.65257873 373.327767 -176 375 C-174.66621425 376.8354799 -174.66621425 376.8354799 -173 378 C-172.01 378 -171.02 378 -170 378 C-168.8914699 380.13787947 -167.96024692 382.12919752 -167.25 384.4375 C-165.85025674 387.30697368 -164.10037032 388.79347874 -161.59765625 390.73046875 C-159.19958734 392.63602473 -157.13258657 394.8046903 -155 397 C-153.02 396.34 -151.04 395.68 -149 395 C-149 394.34 -149 393.68 -149 393 C-148.46375 392.896875 -147.9275 392.79375 -147.375 392.6875 C-144.35509891 391.81331811 -141.79166876 390.44952032 -139 389 C-137.54272037 388.26872972 -136.08436323 387.53960323 -134.625 386.8125 C-133.59246094 386.29623047 -133.59246094 386.29623047 -132.5390625 385.76953125 C-132.03117187 385.51558594 -131.52328125 385.26164062 -131 385 C-131.33 384.01 -131.66 383.02 -132 382 C-132.99 382.495 -132.99 382.495 -134 383 C-134 382.34 -134 381.68 -134 381 C-134.66 381 -135.32 381 -136 381 C-136 380.34 -136 379.68 -136 379 C-136.66 379 -137.32 379 -138 379 C-138.33 378.34 -138.66 377.68 -139 377 C-139.99 377 -140.98 377 -142 377 C-142 376.01 -142 375.02 -142 374 C-143.63790712 372.95355934 -145.31008021 371.9601817 -147 371 C-148.36984198 369.70420353 -149.7151049 368.38007251 -151 367 C-149.68 366.34 -148.36 365.68 -147 365 C-147 364.34 -147 363.68 -147 363 C-146.01 362.7525 -145.02 362.505 -144 362.25 C-139.76903168 361.04115191 -135.73841605 359.33423051 -132 357 C-131.505 356.01 -131.505 356.01 -131 355 C-129.3373217 354.64731066 -127.66934283 354.31966139 -126 354 C-123.30219812 353.07075713 -120.65946725 352.03674147 -118 351 C-117.67 351.99 -117.34 352.98 -117 354 C-113.92475318 355.50861165 -111.06402884 356.79869725 -107.6875 357.4375 C-106 358 -106 358 -104.75 360.0625 C-104.5025 360.701875 -104.255 361.34125 -104 362 C-102.68 362 -101.36 362 -100 362 C-100 362.66 -100 363.32 -100 364 C-95.55619192 362.86726461 -91.73563279 361.71682385 -88 359 C-88 358.34 -88 357.68 -88 357 C-87.01 357 -86.02 357 -85 357 C-85 356.34 -85 355.68 -85 355 C-84.2575 354.87625 -83.515 354.7525 -82.75 354.625 C-80.1266089 354.02877475 -78.22235432 353.50802614 -76 352 C-75.19471111 349.94999129 -75.19471111 349.94999129 -75 348 C-77.64 347.67 -80.28 347.34 -83 347 C-83 346.34 -83 345.68 -83 345 C-85.51758117 344.01170583 -88.03854724 343.0342774 -90.5625 342.0625 C-91.26697266 341.78470703 -91.97144531 341.50691406 -92.69726562 341.22070312 C-96.13362251 339.90633621 -99.30006817 338.85973045 -102.96484375 338.43359375 C-103.96644531 338.29050781 -104.96804688 338.14742188 -106 338 C-106.33 337.34 -106.66 336.68 -107 336 C-107.99 336.495 -107.99 336.495 -109 337 C-109.33 336.01 -109.66 335.02 -110 334 C-114.25023806 331.36890025 -118.0569398 330.49430602 -123 330 C-123 329.34 -123 328.68 -123 328 C-123.94875 327.71125 -124.8975 327.4225 -125.875 327.125 C-129 326 -129 326 -131 324 C-132.43858875 323.36954278 -133.90141415 322.79365303 -135.375 322.25 C-140.48189076 320.28125661 -145.29067475 317.89702642 -150.140625 315.3671875 C-153.04447326 313.97873546 -155.94813247 313.01189242 -159 312 C-160.64055482 311.19772241 -162.26656076 310.36486569 -163.875 309.5 C-167.09116973 307.84082621 -170.03072389 306.60508889 -173.5625 305.8125 C-174.696875 305.544375 -175.83125 305.27625 -177 305 C-177.495 304.01 -177.495 304.01 -178 303 C-178.66 303.33 -179.32 303.66 -180 304 C-180 303.01 -180 302.02 -180 301 C-180.5259375 300.8865625 -181.051875 300.773125 -181.59375 300.65625 C-185.81964379 299.50373351 -189.835652 297.76208224 -193.90625 296.15625 C-196.28179155 295.26842134 -198.52857137 294.53305323 -201 294 C-201 293.34 -201 292.68 -201 292 C-205.03114068 291.67315076 -206.34580165 291.99960186 -209 295 Z M-281 339 C-282.02738281 339.42539062 -283.05476563 339.85078125 -284.11328125 340.2890625 C-285.16902344 340.72992188 -286.22476563 341.17078125 -287.3125 341.625 C-288.38113281 342.07101562 -289.44976562 342.51703125 -290.55078125 342.9765625 C-291.35902344 343.31429688 -292.16726563 343.65203125 -293 344 C-293 344.66 -293 345.32 -293 346 C-294.32 346 -295.64 346 -297 346 C-297 346.66 -297 347.32 -297 348 C-297.721875 348.103125 -298.44375 348.20625 -299.1875 348.3125 C-302.27793421 349.06793947 -304.41743841 350.15531315 -307 352 C-307 352.66 -307 353.32 -307 354 C-307.763125 354.144375 -308.52625 354.28875 -309.3125 354.4375 C-312.08172908 354.9632594 -312.08172908 354.9632594 -315 356 C-315.33 356.66 -315.66 357.32 -316 358 C-316.99 358.33 -317.98 358.66 -319 359 C-319 359.66 -319 360.32 -319 361 C-319.99 360.67 -320.98 360.34 -322 360 C-323.32 361.65 -324.64 363.3 -326 365 C-325.34 365 -324.68 365 -324 365 C-324 365.66 -324 366.32 -324 367 C-323.01 367 -322.02 367 -321 367 C-320.67 367.66 -320.34 368.32 -320 369 C-318.41043138 370.57817386 -316.77916813 372.11467258 -315.125 373.625 C-314.24070312 374.44226563 -313.35640625 375.25953125 -312.4453125 376.1015625 C-310.12100926 378.30662076 -310.12100926 378.30662076 -307 378 C-307 378.66 -307 379.32 -307 380 C-306.01 380 -305.02 380 -304 380 C-304 380.66 -304 381.32 -304 382 C-303.34 382 -302.68 382 -302 382 C-301.67 382.99 -301.34 383.98 -301 385 C-300.01 385 -299.02 385 -298 385 C-298 385.66 -298 386.32 -298 387 C-297.01 387 -296.02 387 -295 387 C-294.34 388.32 -293.68 389.64 -293 391 C-292.01 391 -291.02 391 -290 391 C-289.67 391.66 -289.34 392.32 -289 393 C-287.22294021 394.42050686 -285.40385091 395.78888321 -283.5625 397.125 C-282.57378906 397.84945312 -281.58507812 398.57390625 -280.56640625 399.3203125 C-278.23229447 401.18254225 -278.23229447 401.18254225 -276 401 C-275.67 401.66 -275.34 402.32 -275 403 C-274.01 403.2165625 -274.01 403.2165625 -273 403.4375 C-272.34 403.623125 -271.68 403.80875 -271 404 C-270.67 404.99 -270.34 405.98 -270 407 C-268.31278117 409.27062171 -268.31278117 409.27062171 -266 411 C-263.33165034 411.33498301 -263.33165034 411.33498301 -261 411 C-261 411.66 -261 412.32 -261 413 C-258.4385343 415.29648649 -257.52032428 416 -254 416 C-254 416.66 -254 417.32 -254 418 C-252.02 418.495 -252.02 418.495 -250 419 C-250 419.66 -250 420.32 -250 421 C-248.02 421.66 -246.04 422.32 -244 423 C-244 423.66 -244 424.32 -244 425 C-243.01 425 -242.02 425 -241 425 C-241 425.66 -241 426.32 -241 427 C-239.02 427.66 -237.04 428.32 -235 429 C-235 429.66 -235 430.32 -235 431 C-234.01 431 -233.02 431 -232 431 C-232 431.66 -232 432.32 -232 433 C-230.35 433.33 -228.7 433.66 -227 434 C-227 434.66 -227 435.32 -227 436 C-221.92387682 436.61528766 -219.17017994 434.61658349 -215 432 C-215 431.34 -215 430.68 -215 430 C-214.31292969 429.80664062 -213.62585938 429.61328125 -212.91796875 429.4140625 C-212.01691406 429.15367187 -211.11585938 428.89328125 -210.1875 428.625 C-209.29417969 428.36976563 -208.40085937 428.11453125 -207.48046875 427.8515625 C-204.79532104 427.04733339 -204.79532104 427.04733339 -202 425 C-203.07750851 421.76747447 -203.84241957 421.00151268 -206.375 418.875 C-206.98085938 418.35679687 -207.58671875 417.83859375 -208.2109375 417.3046875 C-210.07573343 415.80615554 -210.07573343 415.80615554 -213 415 C-213.33 414.34 -213.66 413.68 -214 413 C-215.65 413 -217.3 413 -219 413 C-219 412.34 -219 411.68 -219 411 C-222.63323689 408.03764305 -222.63323689 408.03764305 -227 407 C-227 406.34 -227 405.68 -227 405 C-228.65 405 -230.3 405 -232 405 C-232.33 403.68 -232.66 402.36 -233 401 C-233.639375 400.896875 -234.27875 400.79375 -234.9375 400.6875 C-235.618125 400.460625 -236.29875 400.23375 -237 400 C-237.33 399.01 -237.66 398.02 -238 397 C-236.35 396.34 -234.7 395.68 -233 395 C-233 394.34 -233 393.68 -233 393 C-232.443125 392.896875 -231.88625 392.79375 -231.3125 392.6875 C-228.52870742 391.85988599 -226.40148127 390.62262248 -224 389 C-223.505 388.01 -223.505 388.01 -223 387 C-222.25105469 386.88011719 -221.50210938 386.76023437 -220.73046875 386.63671875 C-217.23422153 385.82142791 -215.8180998 384.35213171 -213.3125 381.8125 C-212.54550781 381.05582031 -211.77851562 380.29914063 -210.98828125 379.51953125 C-207.81616207 375.49985173 -206.96108678 372.20630974 -207.125 367.125 C-207.83228425 362.75499372 -209.3957299 358.60107694 -212 355 C-213.485 354.505 -213.485 354.505 -215 354 C-215.28875 353.195625 -215.5775 352.39125 -215.875 351.5625 C-216.77944219 348.76071559 -216.77944219 348.76071559 -219.625 347.6875 C-220.800625 347.3471875 -220.800625 347.3471875 -222 347 C-222 346.34 -222 345.68 -222 345 C-231.81082255 336.14633087 -246.69577796 333.6856239 -259.47265625 333.7734375 C-266.94298245 334.25325912 -274.11485891 336.09649864 -281 339 Z M-359 383 C-362.31952146 383.74100931 -365.6561729 384.37881473 -369 385 C-369.33 385.99 -369.66 386.98 -370 388 C-370.99 387.67 -371.98 387.34 -373 387 C-375.36522558 387.92203709 -377.70401807 388.91698965 -380 390 C-380 390.66 -380 391.32 -380 392 C-380.99 392 -381.98 392 -383 392 C-383 392.66 -383 393.32 -383 394 C-383.556875 394.268125 -384.11375 394.53625 -384.6875 394.8125 C-388.27600651 396.65524658 -391.64489054 398.76326036 -395 401 C-395 401.66 -395 402.32 -395 403 C-395.99 403.66 -396.98 404.32 -398 405 C-400.35680626 410.7848881 -399.07207172 416.6555477 -396.80078125 422.19921875 C-395.92594794 424.16652684 -395.02574196 426.10632253 -394 428 C-393.34 428 -392.68 428 -392 428 C-391.87625 428.639375 -391.7525 429.27875 -391.625 429.9375 C-391.41875 430.618125 -391.2125 431.29875 -391 432 C-390.34 432.33 -389.68 432.66 -389 433 C-388.01 432.505 -388.01 432.505 -387 432 C-386.67 432.99 -386.34 433.98 -386 435 C-383.71769113 436.3629645 -381.51312306 437.54587231 -379.125 438.6875 C-378.48691406 439.00783203 -377.84882813 439.32816406 -377.19140625 439.65820312 C-374.28123856 441.08290944 -372.28002036 442 -369 442 C-368.67 442.66 -368.34 443.32 -368 444 C-351.75896525 444.56404534 -337.38317962 444.4526845 -322 439 C-316.97647225 437.37606318 -312.45993 436.68456302 -307.1875 436.4375 C-302.42625814 436.38437258 -302.42625814 436.38437258 -298 435 C-298 435.66 -298 436.32 -298 437 C-297.4225 437.144375 -296.845 437.28875 -296.25 437.4375 C-295.5075 437.623125 -294.765 437.80875 -294 438 C-293.29875 438.103125 -292.5975 438.20625 -291.875 438.3125 C-290 439 -290 439 -288.75 441.0625 C-288.5025 441.701875 -288.255 442.34125 -288 443 C-287.34 443 -286.68 443 -286 443 C-285.91773332 446.04386724 -286.02391783 448.07175348 -287 451 C-288.485 451.495 -288.485 451.495 -290 452 C-290 452.66 -290 453.32 -290 454 C-290.87398437 454.2165625 -290.87398437 454.2165625 -291.765625 454.4375 C-293.76490839 454.9408161 -295.75794758 455.46878602 -297.75 456 C-301.81557828 457.02403663 -305.83358149 457.55359802 -310 458 C-310 457.34 -310 456.68 -310 456 C-311.8903376 455.29753005 -313.78756828 454.61359151 -315.6875 453.9375 C-316.74324219 453.55464844 -317.79898438 453.17179687 -318.88671875 452.77734375 C-322.11973653 451.97010343 -323.87054993 451.92704569 -327 453 C-328.36020151 454.96758273 -328.36020151 454.96758273 -329 457 C-330.32 457 -331.64 457 -333 457 C-333 457.66 -333 458.32 -333 459 C-334.65 459.66 -336.3 460.32 -338 461 C-338 461.66 -338 462.32 -338 463 C-338.639375 463.103125 -339.27875 463.20625 -339.9375 463.3125 C-340.618125 463.539375 -341.29875 463.76625 -342 464 C-342.495 465.485 -342.495 465.485 -343 467 C-337.16310884 469.70947046 -331.28860191 472.01966436 -325.1875 474.0703125 C-323 475 -323 475 -322 477 C-317.99821658 477.07468157 -313.99670833 477.12885021 -309.99438477 477.16479492 C-308.63558883 477.17979409 -307.27684059 477.20020038 -305.91821289 477.22631836 C-295.53583468 477.50622236 -295.53583468 477.50622236 -286 474 C-284.67723944 473.62691369 -283.34767923 473.26953585 -282 473 C-282 472.34 -282 471.68 -282 471 C-278.04 470.01 -278.04 470.01 -274 469 C-274 468.34 -274 467.68 -274 467 C-272.515 467.495 -272.515 467.495 -271 468 C-270.443125 467.4225 -269.88625 466.845 -269.3125 466.25 C-267 464 -267 464 -264.5625 462.1875 C-261.45071789 459.53110064 -258.96457469 456.60311357 -257 453 C-257 452.01 -257 451.02 -257 450 C-256.34 450 -255.68 450 -255 450 C-254.27861919 442.32130206 -255.45023029 437.26525665 -260 431 C-262.45817955 428.20754907 -262.45817955 428.20754907 -265 426 C-265.99 424.948125 -265.99 424.948125 -267 423.875 C-270.07059873 420.99631369 -272.53895031 419.09740331 -276.8125 418.8125 C-277.534375 418.874375 -278.25625 418.93625 -279 419 C-279 418.34 -279 417.68 -279 417 C-284.53981892 414.88959279 -288.99773666 413.76461712 -295 414 C-295.93392578 413.76216797 -295.93392578 413.76216797 -296.88671875 413.51953125 C-305.05148459 411.51229676 -313.9207654 413.42081278 -322 415 C-322 415.66 -322 416.32 -322 417 C-322.56460938 416.79761719 -323.12921875 416.59523438 -323.7109375 416.38671875 C-326.62909869 415.89371882 -327.95545984 416.58207677 -330.625 417.8125 C-335.66830449 419.98142113 -340.5956443 421.12610419 -346 422 C-346 422.66 -346 423.32 -346 424 C-346.8353125 423.50693359 -346.8353125 423.50693359 -347.6875 423.00390625 C-350.34752122 421.84913353 -352.11829674 421.82767899 -355 421.9375 C-358.20098242 422.04972957 -360.95520609 422.07582718 -364 421 C-365.125 419.125 -365.125 419.125 -366 417 C-366.66 416.01 -367.32 415.02 -368 414 C-367.625 411.3125 -367.625 411.3125 -367 409 C-366.01 408.67 -365.02 408.34 -364 408 C-364 407.34 -364 406.68 -364 406 C-363.401875 405.855625 -362.80375 405.71125 -362.1875 405.5625 C-360.43849596 405.1127561 -358.71322977 404.57107659 -357 404 C-354.56551182 403.85296936 -352.1262523 403.77894661 -349.6875 403.75 C-348.39199219 403.72421875 -347.09648437 403.6984375 -345.76171875 403.671875 C-341.78616433 404.01865233 -339.45887872 405.10090846 -336 407 C-333.70112992 406.80469849 -333.70112992 406.80469849 -332 406 C-332 405.34 -332 404.68 -332 404 C-330.8553125 403.7834375 -330.8553125 403.7834375 -329.6875 403.5625 C-325.79765694 402.89295122 -325.79765694 402.89295122 -322.8125 400.5625 C-319.93015033 398.0777158 -316.68987342 397.78636647 -313 397 C-313 396.01 -313 395.02 -313 394 C-313.969375 393.54625 -314.93875 393.0925 -315.9375 392.625 C-319 391 -319 391 -320 389 C-332.06757408 383.08593096 -345.90375032 378.18913277 -359 383 Z " fill="#000000" transform="translate(738,146)"/>
<path d="M0 0 C0 0.66 0 1.32 0 2 C1.65 2 3.3 2 5 2 C5 2.66 5 3.32 5 4 C6.32 4 7.64 4 9 4 C9.495 4.99 9.495 4.99 10 6 C10.639375 6.11988281 11.27875 6.23976563 11.9375 6.36328125 C14 7 14 7 15.1875 8.85546875 C17.38366572 15.1588867 17.38366572 15.1588867 15.375 19.5625 C14.59125 20.366875 13.8075 21.17125 13 22 C12.01 22 11.02 22 10 22 C10 22.66 10 23.32 10 24 C9.43410156 24.26554687 8.86820313 24.53109375 8.28515625 24.8046875 C7.18494141 25.33449219 7.18494141 25.33449219 6.0625 25.875 C5.33160156 26.22304688 4.60070312 26.57109375 3.84765625 26.9296875 C1.83667541 27.8684977 1.83667541 27.8684977 1 30 C0.01 30 -0.98 30 -2 30 C-2.33 30.66 -2.66 31.32 -3 32 C-3.66 32 -4.32 32 -5 32 C-5.66 31.01 -6.32 30.02 -7 29 C-7.66 28.67 -8.32 28.34 -9 28 C-9 27.34 -9 26.68 -9 26 C-9.99 26 -10.98 26 -12 26 C-12 25.01 -12 24.02 -12 23 C-12.99 23.33 -13.98 23.66 -15 24 C-15.66 23.34 -16.32 22.68 -17 22 C-17.66 21.67 -18.32 21.34 -19 21 C-19 20.34 -19 19.68 -19 19 C-19.66 19 -20.32 19 -21 19 C-21 18.34 -21 17.68 -21 17 C-23.31 16.34 -25.62 15.68 -28 15 C-28 14.34 -28 13.68 -28 13 C-28.99 12.67 -29.98 12.34 -31 12 C-31 11.34 -31 10.68 -31 10 C-30.01 9.67 -29.02 9.34 -28 9 C-27.67 8.34 -27.34 7.68 -27 7 C-25.68 7.33 -24.36 7.66 -23 8 C-23 7.34 -23 6.68 -23 6 C-15.15103405 1.39746499 -9.14803051 -0.97242844 0 0 Z " fill="#000000" transform="translate(511,374)"/>
<path d="M0 0 C1.98 0 3.96 0 6 0 C6 0.66 6 1.32 6 2 C6.99 1.67 7.98 1.34 9 1 C11.51698632 2.07254877 13.66805545 3.54803452 16 5 C16 5.66 16 6.32 16 7 C16.99 7 17.98 7 19 7 C19.28875 7.639375 19.5775 8.27875 19.875 8.9375 C20.82823451 11.15206079 20.82823451 11.15206079 23 12 C24.9669586 15.05971337 25.44444971 17.39562128 25 21 C23.171875 23.01953125 23.171875 23.01953125 20.75 24.8125 C19.96109375 25.41707031 19.1721875 26.02164063 18.359375 26.64453125 C16 28 16 28 12 28 C11.505 29.485 11.505 29.485 11 31 C11 30.34 11 29.68 11 29 C10.34 29 9.68 29 9 29 C9 29.66 9 30.32 9 31 C6.625 31.625 6.625 31.625 4 32 C2 30 2 30 1 28 C0.34 28 -0.32 28 -1 28 C-1.33 27.34 -1.66 26.68 -2 26 C-2.99 25.67 -3.98 25.34 -5 25 C-5 24.34 -5 23.68 -5 23 C-5.66 23 -6.32 23 -7 23 C-7 22.34 -7 21.68 -7 21 C-7.99 21 -8.98 21 -10 21 C-10 20.34 -10 19.68 -10 19 C-10.99 19 -11.98 19 -13 19 C-13 18.34 -13 17.68 -13 17 C-13.66 17 -14.32 17 -15 17 C-15.66 16.34 -16.32 15.68 -17 15 C-17.66 14.67 -18.32 14.34 -19 14 C-19 13.34 -19 12.68 -19 12 C-19.99 11.67 -20.98 11.34 -22 11 C-20.04480616 9.82807953 -18.0857461 8.6626071 -16.125 7.5 C-15.03445313 6.8503125 -13.94390625 6.200625 -12.8203125 5.53125 C-10 4 -10 4 -8 4 C-7.67 3.34 -7.34 2.68 -7 2 C-4.69 2 -2.38 2 0 2 C0 1.34 0 0.68 0 0 Z " fill="#000000" transform="translate(474,498)"/>
<path d="M0 0 C1 1 2 2 3 3 C3.66 3 4.32 3 5 3 C5 3.66 5 4.32 5 5 C5.99 4.67 6.98 4.34 8 4 C8 4.99 8 5.98 8 7 C8.99 7 9.98 7 11 7 C11 8.98 11 10.96 11 13 C11.66 13 12.32 13 13 13 C13 13.99 13 14.98 13 16 C7.65116279 21 7.65116279 21 5 21 C4.505 22.485 4.505 22.485 4 24 C2.35 24 0.7 24 -1 24 C-1.33 25.32 -1.66 26.64 -2 28 C-3.32 28.33 -4.64 28.66 -6 29 C-6 28.34 -6 27.68 -6 27 C-6.99 26.67 -7.98 26.34 -9 26 C-10.02019573 25.0206121 -11.02149805 24.02104551 -12 23 C-12.66 22.67 -13.32 22.34 -14 22 C-14 21.34 -14 20.68 -14 20 C-14.99 20 -15.98 20 -17 20 C-17 19.34 -17 18.68 -17 18 C-17.99 18 -18.98 18 -20 18 C-20.66 17.34 -21.32 16.68 -22 16 C-22.66 15.67 -23.32 15.34 -24 15 C-24 14.34 -24 13.68 -24 13 C-24.66 13 -25.32 13 -26 13 C-26 12.34 -26 11.68 -26 11 C-27.32 10.67 -28.64 10.34 -30 10 C-27 8 -27 8 -24 8 C-24 7.34 -24 6.68 -24 6 C-23.195625 5.87625 -22.39125 5.7525 -21.5625 5.625 C-20.716875 5.41875 -19.87125 5.2125 -19 5 C-18.67 4.34 -18.34 3.68 -18 3 C-17.34 3.33 -16.68 3.66 -16 4 C-15.67 3.01 -15.34 2.02 -15 1 C-10.18489531 -1.6907938 -5.16686604 -1.72228868 0 0 Z " fill="#000000" transform="translate(466,344)"/>
<path d="M0 0 C5.44876003 1.72066106 10.71169451 3.84705349 16 6 C16 6.66 16 7.32 16 8 C17.32 8 18.64 8 20 8 C20 8.66 20 9.32 20 10 C20.969375 10.061875 21.93875 10.12375 22.9375 10.1875 C27.13466526 10.75790583 30.22966519 12.63358272 33.7890625 14.84375 C36.19433622 16.10163166 38.32905523 16.58764361 41 17 C41 17.66 41 18.32 41 19 C41.66 19 42.32 19 43 19 C43 19.66 43 20.32 43 21 C43.598125 20.773125 44.19625 20.54625 44.8125 20.3125 C45.534375 20.209375 46.25625 20.10625 47 20 C48.75 21.4375 48.75 21.4375 50 23 C47.82575883 25.50037734 46.26954202 26.43628586 43 27 C43 27.66 43 28.32 43 29 C42.38511719 29.18175781 41.77023437 29.36351562 41.13671875 29.55078125 C40.32847656 29.80214844 39.52023437 30.05351562 38.6875 30.3125 C37.48673828 30.67794922 37.48673828 30.67794922 36.26171875 31.05078125 C33.88596167 32.04786064 32.7492797 33.15811138 31 35 C29.0625 35.0625 29.0625 35.0625 27 34 C25.59431196 32.05017465 24.2704964 30.04049422 23 28 C20.01508591 23.92058297 20.01508591 23.92058297 16 21 C15.525625 20.030625 15.05125 19.06125 14.5625 18.0625 C13.20367158 14.78256825 13.20367158 14.78256825 10 13 C8.98133771 11.34467377 7.98189187 9.67739862 7 8 C6.02149805 6.97895449 5.02019573 5.9793879 4 5 C2.65263027 3.34466005 1.31665664 1.67987227 0 0 Z " fill="#000000" transform="translate(544,463)"/>
<path d="M0 0 C4.88929045 1.47305546 8.98279296 2.75533277 13 6 C13.99 6 14.98 6 16 6 C16.33 6.66 16.66 7.32 17 8 C18.11375 8.144375 19.2275 8.28875 20.375 8.4375 C24.36541747 9.05670271 24.38921845 9.38921845 27 12 C29.64465002 12.86744521 32.27082405 13.41837234 35 14 C35 14.66 35 15.32 35 16 C36.11375 16.144375 37.2275 16.28875 38.375 16.4375 C42 17 42 17 44 18 C44 18.66 44 19.32 44 20 C43.360625 20.103125 42.72125 20.20625 42.0625 20.3125 C41.381875 20.539375 40.70125 20.76625 40 21 C39.505 22.485 39.505 22.485 39 24 C37.68 24 36.36 24 35 24 C34.67 24.66 34.34 25.32 34 26 C33.01 26 32.02 26 31 26 C31 26.99 31 27.98 31 29 C29.68 29 28.36 29 27 29 C26.67 29.66 26.34 30.32 26 31 C24.82737096 29.88121617 23.66204862 28.75476949 22.5 27.625 C21.8503125 26.99851562 21.200625 26.37203125 20.53125 25.7265625 C19 24 19 24 19 22 C17.68 22 16.36 22 15 22 C14.938125 21.401875 14.87625 20.80375 14.8125 20.1875 C14.16980601 17.74330469 14.16980601 17.74330469 11.5 16.5625 C10.675 16.046875 9.85 15.53125 9 15 C8.855625 14.175 8.71125 13.35 8.5625 12.5 C8.376875 11.675 8.19125 10.85 8 10 C7.030625 9.54625 6.06125 9.0925 5.0625 8.625 C2 7 2 7 0.625 3.3125 C0.41875 2.219375 0.2125 1.12625 0 0 Z " fill="#000000" transform="translate(548,306)"/>
<path d="M0 0 C0.66 0.66 1.32 1.32 2 2 C1.34 2 0.68 2 0 2 C0 1.34 0 0.68 0 0 Z " fill="#000000" transform="translate(728,213)"/>
<path d="" fill="#000000" transform="translate(0,0)"/>
<path d="" fill="#000000" transform="translate(0,0)"/>
</svg>
